<?xml version="1.0" standalone="no"?>
<!DOCTYPE svg PUBLIC "-//W3C//DTD SVG 20010904//EN"
 "http://www.w3.org/TR/2001/REC-SVG-20010904/DTD/svg10.dtd">
<svg version="1.0" xmlns="http://www.w3.org/2000/svg"
 width="850.000000pt" height="871.000000pt" viewBox="0 0 850.000000 871.000000"
 preserveAspectRatio="xMidYMid meet">

<g transform="translate(0.000000,871.000000) scale(0.100000,-0.100000)"
fill="#000000" stroke="none">
<path d="M4345 8551 c-191 -32 -389 -93 -562 -173 -24 -11 -84 -26 -135 -35
-185 -29 -186 -30 -468 -259 -30 -24 -86 -63 -125 -85 -83 -49 -145 -89 -163
-106 -7 -7 -19 -13 -26 -13 -8 0 -19 -7 -26 -15 -7 -8 -21 -15 -31 -15 -11 0
-27 -9 -36 -20 -10 -11 -23 -20 -30 -20 -23 0 -122 -75 -133 -100 -27 -65 -86
-138 -113 -142 -16 -2 -23 -11 -25 -33 -2 -16 -10 -38 -18 -49 -8 -11 -14 -31
-14 -44 0 -13 -15 -39 -35 -59 -19 -20 -35 -44 -35 -53 0 -10 -7 -23 -15 -30
-8 -6 -17 -20 -20 -30 -3 -10 -35 -48 -70 -84 -57 -58 -65 -71 -65 -104 0 -21
-7 -47 -15 -58 -8 -10 -15 -32 -15 -48 0 -21 -13 -40 -50 -75 -49 -46 -90
-110 -90 -141 0 -8 -9 -28 -20 -45 -21 -32 -26 -65 -10 -65 6 0 13 14 17 30 3
17 9 33 13 35 5 3 18 25 30 49 25 52 65 79 149 101 85 22 138 20 146 -5 3 -11
3 -25 0 -30 -4 -6 -11 -70 -15 -142 -6 -82 -14 -138 -23 -152 -48 -72 -127
-237 -127 -264 0 -17 -4 -33 -9 -36 -11 -7 -21 17 -21 48 0 12 -9 49 -21 81
-17 48 -20 76 -17 140 2 44 9 89 15 100 45 87 55 114 50 128 -6 15 -8 15 -34
0 -51 -29 -80 -78 -103 -179 -19 -82 -21 -101 -11 -142 26 -100 36 -125 57
-139 12 -8 25 -26 29 -41 4 -15 12 -34 19 -42 8 -8 16 -32 19 -53 4 -27 18
-50 52 -82 25 -25 51 -45 58 -45 18 0 36 -35 30 -59 -9 -35 -33 -25 -33 14 0
65 -18 36 -25 -40 -7 -66 -11 -80 -38 -106 -23 -23 -32 -27 -38 -17 -5 7 -9
16 -9 21 0 4 -18 7 -40 7 -35 0 -43 5 -60 33 -28 44 -33 70 -26 122 9 57 29
58 42 3 8 -37 13 -43 37 -46 16 -2 35 2 43 9 38 31 -10 90 -77 95 -23 1 -46 7
-52 13 -11 11 -79 15 -89 6 -2 -3 8 -42 23 -87 16 -46 28 -91 29 -101 0 -40
52 -114 88 -128 29 -11 20 -29 -10 -21 -55 14 -202 146 -203 181 0 10 -9 16
-23 17 -30 2 -39 11 -24 26 7 7 12 25 12 40 0 21 -5 28 -19 28 -10 0 -21 7
-25 15 -3 8 -12 15 -19 15 -11 0 -13 -14 -9 -69 3 -45 1 -71 -7 -75 -8 -5 -11
14 -11 64 0 109 -25 138 -69 79 -25 -34 -61 -130 -61 -164 0 -13 -7 -39 -15
-58 -10 -26 -15 -72 -15 -155 l0 -118 -30 -29 c-44 -42 -39 -66 33 -173 15
-23 27 -50 27 -61 0 -22 -35 -51 -61 -51 -9 0 -22 -7 -29 -15 -7 -8 -19 -15
-27 -15 -32 0 -121 -50 -154 -87 -33 -37 -99 -159 -99 -184 0 -10 -44 -71 -91
-124 -50 -57 -117 -163 -133 -208 -16 -47 -14 -78 14 -257 17 -105 24 -117 50
-85 11 13 11 26 0 69 -7 29 -11 86 -9 128 4 61 9 82 32 116 15 23 33 42 41 42
8 0 18 -19 25 -45 7 -28 16 -43 24 -40 8 4 18 -20 30 -75 10 -44 22 -82 28
-85 5 -4 14 6 20 22 l12 28 8 -30 c5 -16 11 -113 13 -215 3 -159 6 -190 22
-220 35 -65 128 -174 242 -285 136 -132 203 -214 233 -286 12 -30 26 -58 31
-64 4 -5 8 -18 8 -28 0 -29 39 -55 100 -67 74 -15 160 -42 174 -55 6 -5 30
-22 53 -37 l42 -28 15 22 c14 19 18 20 60 8 24 -7 50 -10 58 -8 7 3 35 -1 61
-9 44 -13 51 -13 67 2 14 13 23 13 46 4 16 -6 46 -8 68 -4 25 4 54 0 82 -11
l44 -17 41 41 c39 40 75 60 86 48 3 -3 12 -47 20 -97 17 -108 10 -125 -38 -90
-17 12 -33 20 -37 17 -8 -9 -2 -191 12 -356 16 -176 13 -418 -4 -480 -21 -73
-30 -77 -55 -28 -12 24 -33 49 -47 57 -23 13 -30 12 -72 -7 -56 -27 -59 -50
-13 -84 29 -22 52 -34 159 -82 20 -9 48 -16 63 -16 28 0 64 33 65 60 0 8 9 32
20 53 11 20 20 48 20 61 0 14 7 32 16 40 8 9 18 32 21 51 3 19 12 40 19 46 8
6 14 29 14 50 0 20 7 44 15 53 8 8 15 30 15 48 0 19 6 43 14 54 14 19 15 19
22 0 4 -11 0 -41 -11 -71 -16 -49 -16 -55 -1 -76 9 -13 16 -41 16 -62 0 -24 5
-40 15 -43 20 -8 21 -74 1 -74 -19 0 -29 -33 -20 -63 3 -12 21 -34 38 -49 l31
-28 -103 1 c-100 2 -104 1 -133 -27 -16 -15 -26 -31 -21 -36 14 -14 134 -30
237 -32 55 -1 107 -6 115 -11 8 -5 37 -14 65 -20 37 -9 50 -16 49 -29 -2 -12
5 -17 20 -15 11 0 36 1 54 0 32 -1 33 -2 27 -31 -6 -30 -6 -30 35 -30 37 0 41
-2 35 -20 -3 -11 -2 -20 3 -20 18 0 34 30 29 51 -4 15 0 23 13 26 11 3 22 15
26 27 3 11 12 28 19 36 14 16 45 127 48 170 2 24 0 25 -43 22 -25 -2 -64 -10
-87 -19 -52 -19 -153 -14 -230 12 -43 14 -57 25 -77 59 -14 24 -32 48 -40 56
-9 7 -16 22 -16 33 0 11 -7 29 -16 38 -14 15 -16 40 -15 140 1 101 -3 128 -19
164 -11 24 -20 54 -20 67 0 13 -5 29 -11 35 -6 6 -9 26 -7 44 3 33 5 34 66 47
35 8 66 20 68 27 3 7 -9 36 -25 64 -17 29 -31 54 -31 57 0 2 -15 26 -33 52
-17 26 -40 64 -50 85 -10 22 -31 55 -46 75 -16 21 -31 46 -33 57 -2 16 -12 21
-48 23 -47 4 -198 -20 -284 -44 -35 -10 -109 -14 -247 -14 l-198 0 -68 51
c-129 97 -193 192 -193 283 0 36 5 58 14 63 7 4 27 33 44 63 18 30 45 71 62
90 33 39 34 43 20 70 -13 25 -124 43 -207 34 -52 -5 -63 -4 -63 8 0 41 78 76
200 90 136 15 194 41 270 118 36 37 75 89 88 116 13 27 30 62 38 77 8 16 14
37 14 46 0 10 8 29 18 42 10 13 22 31 26 39 8 18 25 46 50 82 10 15 16 33 14
40 -6 17 -57 -38 -70 -74 -6 -16 -14 -28 -18 -28 -4 0 -11 -12 -15 -27 -7 -32
-22 -45 -119 -110 -63 -42 -77 -47 -140 -51 -63 -4 -73 -2 -90 17 -11 11 -26
21 -35 21 -9 0 -33 9 -54 20 -44 24 -66 25 -93 5 -10 -8 -36 -15 -57 -15 -21
0 -82 -9 -135 -19 -255 -50 -304 -51 -348 -10 -27 26 -30 52 -10 100 8 19 17
55 21 81 10 65 21 71 77 44 26 -13 53 -28 60 -34 7 -6 27 -14 43 -18 17 -4 35
-11 41 -15 14 -11 84 -7 77 4 -2 4 -14 5 -26 1 -19 -6 -20 -5 -5 10 19 19 35
21 40 5 3 -8 18 -9 47 -4 35 6 42 10 38 26 -5 20 9 27 15 8 2 -5 41 15 87 45
46 31 87 56 91 56 4 0 10 7 14 15 3 8 15 15 26 15 15 0 20 5 18 18 -2 10 -12
17 -26 16 -12 0 -22 3 -22 8 0 8 15 12 39 9 8 -2 10 3 6 11 -3 7 0 5 8 -4 18
-23 18 -23 70 12 24 16 55 34 68 40 13 5 31 14 39 19 90 52 192 66 266 35 44
-18 115 -78 126 -107 4 -10 12 -16 17 -13 5 3 11 -8 15 -24 7 -38 34 -80 51
-80 14 0 10 36 -7 57 -13 17 10 27 28 12 9 -8 13 -21 10 -35 -8 -31 9 -39 39
-17 27 20 32 33 11 33 -7 0 -16 11 -19 25 -2 14 -2 23 1 20 3 -2 11 0 19 6 7
6 13 8 13 3 0 -5 4 -4 8 3 12 19 46 20 50 1 3 -13 -3 -18 -21 -18 -14 0 -24
-6 -24 -15 0 -22 35 -18 47 5 6 11 17 20 24 20 8 0 19 7 26 15 7 8 31 23 54
34 22 11 75 35 117 55 42 20 83 36 91 36 8 0 23 7 34 15 10 8 33 15 49 15 51
1 77 11 65 25 -15 18 4 29 27 16 23 -12 93 -12 93 0 0 19 -43 51 -76 56 -43 7
-39 27 5 31 26 3 34 -1 38 -16 3 -11 13 -22 24 -25 10 -3 19 -13 19 -22 0 -9
5 -13 10 -10 6 3 10 27 11 53 0 26 3 41 6 35 9 -24 23 -13 23 17 0 24 4 30 18
28 11 -2 17 3 17 16 0 17 -7 19 -80 17 -44 -1 -87 -3 -95 -3 -51 -3 -100 3
-95 12 4 7 58 10 148 8 104 -2 150 1 173 12 34 15 104 108 104 138 0 33 33 54
73 47 28 -5 35 -3 41 12 10 29 33 65 46 73 15 9 4 30 -16 30 -18 0 -17 10 1
34 7 10 18 15 24 11 6 -3 11 -1 11 6 0 10 3 10 13 0 10 -11 10 -14 0 -18 -22
-8 -14 -23 11 -23 13 0 29 7 36 15 7 8 27 15 46 15 23 0 37 6 44 20 6 11 9 20
8 21 -2 0 -11 2 -21 4 -32 6 -32 15 0 15 17 0 36 -6 42 -14 6 -7 36 -16 66
-20 31 -3 74 -13 98 -21 23 -8 52 -15 65 -15 12 0 22 -4 22 -10 0 -5 -7 -10
-15 -10 -8 0 -15 -4 -15 -10 0 -5 -7 -10 -15 -10 -8 0 -15 4 -15 9 0 12 -51 0
-85 -21 -18 -11 -49 -18 -77 -18 -27 0 -48 -4 -48 -10 0 -5 15 -10 34 -10 26
0 35 -5 40 -22 8 -31 1 -35 -76 -41 -72 -7 -87 3 -39 24 16 7 27 17 25 21 -8
12 -49 9 -62 -4 -7 -7 -40 -18 -74 -25 -46 -9 -68 -19 -85 -40 -12 -16 -22
-33 -23 -38 0 -6 -13 -16 -28 -23 -42 -18 -73 -67 -85 -133 -7 -36 -17 -59
-25 -59 -7 0 -15 -8 -19 -17 -3 -10 -11 -25 -18 -33 -7 -8 -15 -23 -18 -33 -9
-24 15 -10 66 37 21 20 42 36 47 36 5 0 15 7 24 15 8 9 40 20 71 26 61 11 145
51 158 75 5 9 16 12 33 8 39 -10 92 32 100 80 4 26 12 40 25 43 10 3 19 12 19
19 0 8 9 14 20 14 11 0 20 5 20 10 0 6 -9 10 -20 10 -18 0 -16 5 16 40 20 22
40 37 45 34 13 -8 -1 -32 -23 -37 -11 -3 -17 -10 -13 -16 9 -16 45 -13 51 4 3
8 14 17 25 20 10 4 19 11 19 16 0 19 40 48 82 60 69 20 137 75 138 110 0 10
12 19 30 23 17 3 44 9 61 12 21 4 40 19 58 45 14 21 33 38 41 39 8 0 29 9 45
20 19 13 47 20 78 20 55 0 132 16 162 33 11 6 50 11 87 12 36 0 70 4 75 8 4 5
8 48 8 95 0 85 0 87 25 88 13 1 34 -5 47 -13 23 -15 73 -102 73 -127 0 -20 46
-73 69 -79 30 -7 37 4 49 80 16 97 15 132 -3 139 -16 7 -20 39 -6 49 9 5 41
-48 41 -67 0 -5 14 -23 30 -40 26 -25 35 -29 58 -21 34 10 92 5 92 -8 0 -12
-120 -7 -159 6 -21 7 -23 6 -17 -11 5 -10 10 -37 13 -59 7 -50 31 -91 107
-183 68 -81 68 -81 186 -41 63 22 124 25 118 7 -3 -7 -22 -17 -44 -21 -21 -5
-52 -15 -67 -23 -16 -8 -37 -14 -48 -14 -31 0 -60 -36 -53 -66 5 -21 0 -31
-30 -56 -43 -35 -44 -47 -10 -87 22 -27 32 -31 74 -31 27 0 61 5 77 11 15 6
53 14 83 18 l55 6 3 45 c3 57 20 173 28 194 4 11 -4 19 -28 29 l-33 15 48 21
c32 15 47 28 47 41 0 17 6 19 71 15 108 -6 129 -12 129 -40 0 -13 5 -25 11
-27 15 -5 0 -36 -19 -41 -10 -3 0 -4 21 -4 26 0 44 -6 58 -21 11 -12 24 -22
29 -22 5 0 10 -10 12 -22 5 -34 50 -32 59 2 20 72 -1 190 -35 190 -15 0 -56
54 -56 75 0 8 7 15 15 15 9 0 15 -9 15 -25 0 -31 47 -48 62 -21 5 9 13 16 17
16 4 0 8 -82 8 -181 1 -141 4 -184 14 -191 11 -7 9 -12 -8 -25 -26 -17 -30
-45 -10 -65 17 -17 97 -154 97 -166 0 -5 7 -15 15 -22 8 -7 15 -20 15 -29 0
-9 14 -36 30 -60 39 -57 38 -65 -5 -58 -49 8 -61 -16 -35 -66 11 -21 20 -41
20 -47 0 -15 -54 -12 -76 5 -22 17 -80 20 -90 4 -6 -11 101 -119 118 -119 4 0
8 -10 8 -21 0 -20 -4 -21 -45 -16 -54 8 -75 1 -75 -24 0 -31 42 -67 110 -94
36 -14 74 -30 85 -35 63 -27 113 -48 138 -58 22 -9 27 -18 27 -45 0 -18 -7
-43 -16 -55 -9 -13 -19 -46 -24 -75 -4 -29 -13 -65 -19 -82 -6 -16 -16 -57
-22 -89 -7 -38 -19 -67 -35 -83 -44 -44 -28 -65 60 -77 27 -3 60 -13 72 -21
13 -8 34 -15 48 -15 31 0 56 -9 56 -21 0 -15 -75 -10 -96 6 -10 8 -37 15 -60
15 -22 0 -64 7 -93 16 -29 8 -59 13 -66 10 -13 -4 -85 -109 -85 -122 0 -6 -83
-116 -104 -136 -37 -38 -106 -129 -106 -142 0 -36 -141 -48 -243 -21 -32 8
-83 15 -112 15 -49 0 -55 2 -55 20 0 12 9 38 19 59 21 40 14 61 -18 61 -9 0
-36 7 -61 15 -92 30 -213 56 -222 47 -6 -6 3 -32 21 -66 17 -31 31 -63 31 -70
0 -7 7 -19 15 -26 8 -7 15 -16 15 -21 0 -15 -71 -39 -115 -39 -74 0 -73 -19 3
-81 37 -30 78 -62 92 -71 14 -9 47 -37 74 -61 l50 -44 -22 -28 c-27 -34 -27
-51 -2 -93 11 -18 20 -42 20 -53 0 -28 -18 -59 -34 -59 -7 0 -32 -14 -54 -30
-45 -32 -53 -60 -27 -94 26 -34 19 -65 -20 -87 -39 -23 -38 -23 -35 -95 1 -28
-7 -76 -18 -110 -19 -58 -21 -60 -91 -95 -89 -45 -117 -71 -125 -114 -8 -43
-69 -105 -144 -146 -60 -34 -82 -65 -82 -117 0 -12 -16 -43 -36 -68 -82 -108
-142 -289 -147 -443 l-2 -76 29 2 c16 1 37 11 46 21 27 29 50 123 50 205 0
118 5 130 92 222 77 81 145 134 237 183 26 13 57 30 71 37 14 8 59 29 100 47
151 67 174 81 193 121 11 22 26 37 36 37 26 0 97 -54 178 -137 40 -40 77 -73
81 -73 5 0 16 8 25 18 13 14 16 54 19 242 4 272 -3 301 -87 381 -32 31 -57 66
-63 88 -49 169 -61 315 -29 364 14 22 25 27 60 27 40 0 46 -4 81 -50 43 -56
146 -130 182 -130 30 0 64 33 64 61 0 33 50 108 83 126 24 12 35 13 49 4 31
-20 72 -13 100 16 33 36 48 66 48 95 0 50 61 141 105 158 34 13 87 -2 128 -36
61 -51 98 -18 121 111 22 124 21 141 -10 162 l-26 16 27 14 c21 12 25 19 21
41 -3 15 -8 48 -12 73 -8 64 10 69 98 24 73 -37 105 -43 114 -22 4 11 -15 92
-48 204 -17 59 -3 71 50 44 45 -23 82 -27 82 -10 0 19 -42 81 -86 129 -51 54
-114 136 -114 147 0 4 -7 22 -16 38 -48 92 -79 234 -62 281 12 34 1 76 -45
171 -18 37 -19 46 -7 70 7 16 16 42 20 58 5 17 18 55 30 85 12 30 25 73 29 95
l6 40 53 3 c63 4 65 11 17 82 -40 59 -41 65 -19 108 16 33 47 42 82 23 9 -5
45 -12 80 -16 56 -6 61 -5 56 10 -6 15 -16 16 -67 11 -46 -6 -58 -4 -55 6 3 7
22 15 44 18 38 5 39 6 40 45 1 54 18 60 22 8 2 -31 9 -46 23 -54 13 -7 18 -16
14 -29 -4 -13 3 -27 26 -47 32 -28 76 -93 118 -171 30 -56 19 -71 -37 -54 -56
17 -70 15 -88 -13 -21 -32 -6 -106 35 -167 43 -65 102 -221 88 -234 -4 -4 -20
-1 -36 6 -16 6 -35 9 -40 5 -17 -10 -13 -70 9 -125 25 -64 26 -90 2 -90 -10 0
-23 5 -29 11 -14 14 -53 2 -53 -17 0 -8 12 -33 27 -57 41 -64 89 -216 103
-332 5 -33 15 -100 24 -149 9 -49 16 -118 16 -155 0 -114 -13 -319 -20 -332
-6 -9 -20 -8 -59 2 -46 11 -52 11 -71 -6 -11 -10 -20 -25 -20 -33 0 -19 28
-117 45 -157 7 -16 21 -50 31 -75 10 -25 40 -92 68 -150 41 -87 75 -166 76
-177 0 -2 -29 24 -64 58 -118 111 -157 134 -184 107 -16 -16 -15 -95 3 -153
17 -58 13 -66 -24 -59 -39 8 -61 -25 -61 -89 l0 -49 -31 7 c-37 8 -69 -16 -69
-52 0 -25 -27 -43 -39 -26 -3 5 -30 31 -59 56 -77 69 -112 63 -112 -19 0 -48
-61 -157 -125 -224 -29 -30 -62 -66 -72 -79 -16 -20 -23 -22 -40 -13 -11 6
-23 18 -27 27 -3 8 -12 15 -20 15 -15 0 -49 -65 -147 -285 -12 -27 -51 -109
-85 -182 -35 -73 -64 -137 -64 -143 0 -15 -29 -12 -46 5 -23 23 -50 18 -112
-18 -72 -42 -187 -76 -258 -77 -22 0 -49 -7 -60 -15 -19 -15 -19 -15 0 -30 11
-8 30 -15 42 -15 13 0 35 -5 50 -10 21 -8 29 -8 35 2 6 9 43 13 132 14 84 1
139 6 173 17 60 20 182 40 195 32 5 -4 9 -17 9 -29 0 -13 6 -29 14 -35 12 -10
22 -2 53 46 22 32 62 90 91 130 28 40 54 84 58 98 3 13 23 44 44 67 36 41 41
43 88 42 36 -2 61 -9 83 -25 18 -13 44 -23 57 -24 21 0 31 -14 71 -95 52 -107
70 -119 107 -73 22 26 76 130 119 231 32 73 63 42 103 -102 10 -39 24 -72 29
-73 6 -2 21 29 33 69 12 40 28 91 36 113 7 22 21 86 30 142 12 73 21 104 33
108 19 8 119 -93 174 -176 37 -56 71 -84 87 -74 26 16 5 130 -65 355 -58 186
-76 270 -58 270 5 0 31 -23 58 -50 54 -55 95 -67 95 -27 0 26 -27 100 -63 172
-87 174 -132 311 -132 401 0 34 5 68 12 75 6 8 20 52 32 98 21 79 22 108 22
435 0 193 4 386 10 428 9 68 7 84 -12 143 -28 89 -27 114 5 142 20 17 39 23
77 23 46 0 49 2 49 25 0 14 -4 33 -10 43 -20 35 -43 108 -44 142 -1 30 2 35
24 38 19 2 36 -9 69 -43 42 -43 61 -55 61 -36 0 10 -26 79 -39 102 -11 19 -43
137 -45 164 -1 16 5 20 26 18 25 -1 26 0 16 29 -9 26 -8 33 5 43 10 7 17 17
17 23 0 19 -39 88 -66 117 -47 51 -20 62 36 15 36 -32 76 -41 67 -16 -10 24 6
27 22 3 9 -12 16 -24 16 -27 1 -16 19 -30 41 -30 13 0 24 -4 24 -9 0 -10 27
-27 88 -56 31 -15 33 -14 60 10 15 14 30 25 34 25 14 0 20 -48 9 -68 -9 -17
-6 -24 20 -46 33 -28 58 -33 76 -15 19 19 43 2 43 -29 0 -15 -5 -33 -10 -38
-12 -12 -2 -74 12 -74 12 0 19 21 27 82 3 31 12 53 20 56 11 4 13 -3 6 -34 -4
-22 -8 -55 -9 -74 0 -19 -4 -37 -7 -40 -4 -3 -10 -28 -14 -57 -6 -47 -5 -52
16 -58 26 -9 39 -18 81 -62 17 -18 35 -30 39 -27 14 9 10 79 -6 100 -8 10 -15
36 -15 57 0 20 -9 54 -20 74 -11 21 -20 54 -20 73 0 20 -7 45 -15 56 -21 27
-20 140 0 148 9 3 18 -1 22 -10 3 -8 18 -21 33 -29 24 -13 30 -13 40 0 8 9 10
26 5 42 -3 16 -10 54 -14 85 -4 32 -12 63 -19 70 -7 7 -12 30 -12 53 0 22 -9
57 -20 78 -11 20 -20 52 -20 71 0 18 -7 39 -15 46 -13 11 -13 15 0 33 20 29
20 120 0 137 -8 7 -15 21 -15 30 0 21 -46 116 -60 125 -6 3 -10 15 -10 26 0
10 -4 19 -10 19 -5 0 -16 16 -24 35 -8 19 -20 35 -25 35 -6 0 -11 7 -11 15 0
8 -4 15 -8 15 -14 0 -62 80 -62 102 0 18 4 20 40 14 35 -5 40 -4 40 13 0 10
-8 29 -18 42 -10 13 -23 35 -30 49 -7 14 -21 39 -32 55 -11 17 -24 39 -29 50
-5 12 -16 27 -25 34 -9 7 -16 18 -16 23 0 6 -22 39 -50 74 -27 35 -50 66 -50
70 0 8 -49 61 -173 186 -72 72 -118 111 -137 114 -16 4 -31 12 -34 20 -3 9
-21 14 -50 14 -30 0 -46 5 -50 15 -3 8 -11 15 -19 15 -16 0 -77 53 -77 66 0 5
27 36 59 68 33 32 79 88 104 125 85 126 147 226 147 237 0 10 18 56 50 129 82
186 106 328 91 540 -11 152 -22 178 -82 196 -61 19 -145 -10 -239 -81 -19 -15
-62 -37 -96 -48 -62 -21 -86 -22 -614 -27 -52 0 -60 3 -120 50 -99 77 -123 92
-265 163 -130 65 -201 92 -385 148 -72 21 -325 54 -420 54 -111 0 -372 -35
-491 -66 -57 -15 -133 -29 -169 -31 -57 -4 -73 -1 -127 26 -120 60 -300 80
-468 52z m1699 -180 c9 -14 -24 -22 -45 -11 -10 6 -19 13 -19 15 0 9 59 5 64
-4z m-1322 -30 c4 -1 5 -14 3 -31 -2 -16 1 -30 6 -30 5 0 9 -7 9 -15 0 -22
-27 -18 -33 5 -3 14 -14 20 -34 21 -23 1 -24 2 -5 6 33 7 27 21 -14 29 -61 11
-9 23 68 15z m1446 -1 c25 0 33 -3 25 -11 -15 -15 -115 -7 -121 10 -4 11 3 13
28 8 18 -4 49 -7 68 -7z m-1368 -40 c0 -5 -4 -10 -10 -10 -5 0 -10 -9 -10 -20
0 -31 -17 -23 -22 10 -4 26 -1 30 19 30 13 0 23 -4 23 -10z m835 0 c4 -6 -17
-10 -54 -10 -34 0 -61 4 -61 10 0 6 24 10 54 10 30 0 58 -4 61 -10z m589 1
c29 -11 4 -22 -33 -15 -17 4 -31 10 -31 15 0 11 37 11 64 0z m90 1 c6 -10 -30
-52 -44 -52 -5 0 -12 5 -15 10 -3 6 -1 10 6 10 6 0 9 8 6 20 -4 16 0 20 18 20
13 0 26 -4 29 -8z m-596 -39 c2 -8 -6 -13 -22 -13 -26 0 -40 12 -29 24 11 11
46 2 51 -11z m680 11 c13 -4 21 -12 19 -18 -3 -8 9 -13 32 -14 37 -3 135 -44
146 -62 3 -6 15 -10 26 -10 10 0 19 -4 19 -10 0 -6 -28 -10 -64 -10 -36 0 -68
5 -71 10 -3 6 3 10 14 10 12 0 21 5 21 10 0 6 -7 10 -15 10 -8 0 -15 6 -15 14
0 16 -51 28 -64 15 -6 -6 -6 -9 0 -9 6 0 19 -7 30 -15 18 -14 18 -14 -7 -15
-14 0 -36 9 -49 20 -13 11 -36 20 -51 20 -30 0 -47 15 -27 24 10 5 10 7 -1 12
-11 5 -11 8 0 15 17 10 26 11 57 3z m1244 -164 c-4 -120 -29 -230 -72 -319
-17 -34 -30 -64 -30 -67 0 -8 -97 -202 -122 -242 -107 -178 -193 -223 -279
-145 -22 20 -48 50 -56 67 -39 75 -54 285 -29 421 29 165 163 274 367 300 28
3 74 23 120 49 41 24 81 43 89 42 13 -1 14 -19 12 -106z m-3537 50 c-3 -5 -21
-10 -40 -10 -19 0 -37 5 -40 10 -4 6 12 10 40 10 28 0 44 -4 40 -10z m100 -35
c0 -15 -103 -14 -123 2 -15 11 -7 13 53 10 39 -1 70 -6 70 -12z m1159 6 c6
-10 -155 -24 -178 -15 -9 3 -16 10 -16 15 0 11 187 12 194 0z m86 -42 c0 -12
-37 -12 -44 0 -7 11 14 20 32 13 6 -2 12 -8 12 -13z m703 12 c23 -1 36 -5 32
-11 -3 -5 -18 -10 -32 -10 -18 0 -24 -4 -19 -15 4 -11 -2 -15 -20 -15 -19 0
-25 4 -21 14 5 11 -4 16 -35 18 -23 2 -43 9 -46 16 -3 10 8 12 49 8 30 -2 71
-5 92 -5z m-1878 -11 c8 -13 -5 -13 -25 0 -13 8 -13 10 2 10 9 0 20 -4 23 -10z
m1245 -30 c0 -5 -9 -10 -20 -10 -11 0 -20 5 -20 10 0 6 9 10 20 10 11 0 20 -4
20 -10z m180 0 c0 -6 -29 -10 -66 -10 -41 0 -63 4 -59 10 3 6 33 10 66 10 33
0 59 -4 59 -10z m560 2 c0 -14 -48 -54 -53 -45 -5 7 -3 32 2 51 2 6 51 1 51
-6z m-616 -28 c9 -3 13 -10 10 -15 -6 -11 -45 -12 -71 -2 -16 6 -15 8 7 14 35
10 36 10 54 3z m160 -3 c7 -10 -23 -20 -41 -14 -7 3 -13 9 -13 14 0 12 47 12
54 0z m-2354 -11 c-20 -13 -40 -13 -40 0 0 6 12 10 28 10 21 0 24 -2 12 -10z
m2730 0 c0 -5 -4 -10 -9 -10 -6 0 -13 5 -16 10 -3 6 1 10 9 10 9 0 16 -4 16
-10z m126 -11 c16 -17 16 -22 4 -29 -8 -6 -23 -10 -33 -10 -10 0 -15 -4 -12
-10 3 -5 1 -10 -4 -10 -15 0 -14 6 5 35 9 13 13 29 9 35 -11 18 11 11 31 -11z
m-2941 -19 c-3 -5 -15 -10 -26 -10 -11 0 -17 5 -14 10 3 6 15 10 26 10 11 0
17 -4 14 -10z m2385 0 c11 -7 6 -10 -22 -10 -20 0 -40 5 -43 10 -8 13 45 13
65 0z m70 0 c0 -5 -5 -10 -11 -10 -5 0 -7 5 -4 10 3 6 8 10 11 10 2 0 4 -4 4
-10z m60 0 c0 -5 -4 -10 -9 -10 -6 0 -13 5 -16 10 -3 6 1 10 9 10 9 0 16 -4
16 -10z m-2600 -30 c0 -5 -7 -10 -16 -10 -8 0 -12 5 -9 10 3 6 10 10 16 10 5
0 9 -4 9 -10z m2677 -6 c2 -7 -19 -10 -64 -9 -81 3 -82 3 -64 14 19 12 124 8
128 -5z m-2762 -34 c-3 -5 -15 -10 -26 -10 -10 0 -19 5 -19 10 0 6 12 10 26
10 14 0 23 -4 19 -10z m-85 -30 c0 -5 -16 -10 -36 -10 -21 0 -33 4 -29 10 3 6
19 10 36 10 16 0 29 -4 29 -10z m765 -1 c4 -5 -3 -9 -14 -9 -11 0 -23 -5 -26
-11 -5 -7 18 -10 72 -9 117 2 113 3 113 -25 0 -21 -5 -25 -30 -25 -16 0 -30 5
-30 10 0 6 5 10 11 10 5 0 8 4 5 8 -3 5 -53 7 -110 4 -91 -4 -107 -2 -112 11
-3 9 -21 19 -40 23 -68 13 -43 23 55 23 55 0 103 -4 106 -10z m-845 -35 c3 -5
-16 -10 -42 -12 -32 -2 -48 -8 -48 -16 0 -8 -9 -16 -20 -19 -25 -7 -60 2 -60
15 0 6 7 7 16 4 24 -9 51 2 57 23 4 15 13 18 48 16 24 -1 46 -7 49 -11z m2100
-9 c-33 -13 -28 -14 77 -14 63 -1 115 -5 118 -11 4 -6 -43 -10 -134 -10 -80 0
-141 4 -141 9 0 5 8 12 18 14 9 3 -9 5 -40 6 -31 0 -60 6 -63 11 -4 6 31 10
97 9 97 0 101 -1 68 -14z m-2256 -67 c-3 -5 -20 -7 -37 -4 -44 6 -45 6 -23 15
25 9 68 2 60 -11z m2560 0 c-2 -16 8 -18 67 -18 39 0 69 -4 69 -10 0 -5 -11
-10 -24 -10 -20 0 -23 -4 -19 -21 4 -16 2 -20 -8 -17 -8 3 -13 13 -13 22 1 11
-6 16 -25 16 -15 0 -36 7 -47 15 -12 8 -48 16 -80 19 -74 6 -73 6 -49 16 11 5
45 8 75 7 46 -2 55 -5 54 -19z m-2680 -26 c2 -4 -4 -13 -15 -20 -15 -10 -19
-10 -19 1 0 24 23 36 34 19z m76 -2 c0 -5 -7 -10 -15 -10 -8 0 -15 5 -15 10 0
6 7 10 15 10 8 0 15 -4 15 -10z m-109 -67 c14 -16 -11 -22 -39 -10 l-22 10 22
25 c21 22 23 22 27 5 2 -10 7 -23 12 -30z m2913 38 c5 -8 -29 -25 -46 -22 -5
1 -7 -4 -5 -11 1 -6 -6 -14 -15 -16 -10 -2 -18 1 -18 7 0 6 4 11 9 11 5 0 13
9 16 20 7 21 49 28 59 11z m-2849 -11 c-3 -5 -13 -10 -21 -10 -8 0 -14 5 -14
10 0 6 9 10 21 10 11 0 17 -4 14 -10z m2920 -30 c-3 -5 -14 -6 -25 -3 -11 3
-18 9 -15 13 3 5 14 6 25 3 11 -3 18 -9 15 -13z m-3055 -32 c0 -9 3 -9 12 0
16 16 28 15 28 -3 0 -8 -5 -15 -10 -15 -14 0 -80 -70 -116 -122 -27 -38 -28
-39 -36 -17 -7 18 -3 27 19 45 15 13 31 23 36 24 4 0 7 9 7 20 0 10 9 24 20
30 11 6 20 20 20 30 0 11 5 20 10 20 6 0 10 -5 10 -12z m1110 1 c0 -11 -4 -11
-135 -14 -110 -3 -155 2 -155 15 0 5 65 9 145 9 81 -1 145 -5 145 -10z m1865
-19 c-5 -8 -11 -8 -21 1 -12 10 -12 14 -2 20 16 10 33 -5 23 -21z m155 20 c0
-5 -7 -10 -15 -10 -8 0 -15 5 -15 10 0 6 7 10 15 10 8 0 15 -4 15 -10z m-78
-30 c-18 -31 -35 -35 -40 -8 -2 8 7 20 20 26 36 17 38 14 20 -18z m-2222 -10
c0 -5 -9 -10 -20 -10 -11 0 -20 5 -20 10 0 6 9 10 20 10 11 0 20 -4 20 -10z
m2335 1 c-11 -4 -20 -16 -20 -26 0 -26 -22 -30 -30 -6 -9 30 2 41 38 40 26 0
28 -2 12 -8z m-2530 -31 c6 -10 -13 -13 -81 -10 -29 1 -43 -3 -47 -14 -4 -9
-13 -16 -21 -16 -26 0 -28 -20 -4 -29 22 -9 21 -10 -8 -10 -36 -1 -43 4 -37
27 8 30 73 60 135 61 31 1 60 -3 63 -9z m2599 1 c3 -5 -1 -14 -9 -21 -8 -7
-15 -9 -15 -4 -1 5 -8 -4 -16 -19 -16 -29 -37 -32 -42 -5 -1 8 9 20 23 26 14
6 25 16 25 22 0 12 27 13 34 1z m-873 -24 c-1 -12 -15 -9 -19 4 -3 6 1 10 8 8
6 -3 11 -8 11 -12z m-1766 -18 c-8 -12 -35 -12 -35 0 0 11 22 20 33 14 4 -2 5
-9 2 -14z m2695 11 c0 -5 -7 -10 -16 -10 -8 0 -12 5 -9 10 3 6 10 10 16 10 5
0 9 -4 9 -10z m-190 -24 c0 -2 -7 -7 -16 -10 -8 -3 -12 -2 -9 4 6 10 25 14 25
6z m-2695 -16 c-3 -5 -10 -10 -16 -10 -5 0 -9 5 -9 10 0 6 7 10 16 10 8 0 12
-4 9 -10z m1185 0 c0 -5 12 -21 27 -36 26 -26 26 -28 8 -34 -16 -6 -22 -2 -28
22 -6 24 -12 28 -29 22 -14 -4 -18 -2 -14 5 4 6 3 11 -3 11 -5 0 -11 -6 -13
-12 -3 -8 -9 -4 -17 10 -11 21 -10 22 29 22 22 0 40 -4 40 -10z m824 -29 c22
-32 26 -45 21 -75 -9 -48 -25 -36 -25 19 0 33 -3 43 -14 39 -14 -5 -26 22 -19
44 6 17 7 16 37 -27z m966 29 c0 -5 -13 -10 -30 -10 -16 0 -30 5 -30 10 0 6
14 10 30 10 17 0 30 -4 30 -10z m-235 -9 c6 -10 -21 -41 -36 -41 -10 0 -12 33
-2 43 9 10 31 9 38 -2z m145 0 c3 -1 7 -13 8 -28 1 -24 0 -26 -9 -10 -8 14
-18 17 -35 13 -33 -9 -49 1 -33 20 7 8 23 13 38 10 14 -2 28 -5 31 -5z m140
-21 c0 -21 -15 -27 -25 -10 -7 12 2 30 16 30 5 0 9 -9 9 -20z m-3011 1 c19
-12 -3 -24 -29 -16 -24 8 -63 -3 -55 -15 6 -9 -18 -20 -46 -20 -25 0 -25 17 0
25 11 3 22 12 25 20 6 17 81 21 105 6z m-557 -36 c-4 -26 -22 -45 -22 -25 0
12 18 50 24 50 2 0 1 -11 -2 -25z m3338 5 c0 -5 -2 -10 -4 -10 -3 0 -8 5 -11
10 -3 6 -1 10 4 10 6 0 11 -4 11 -10z m200 -14 c0 -20 -19 -31 -32 -18 -6 6
-7 15 -4 21 10 16 36 13 36 -3z m-250 -15 c0 -11 5 -23 11 -27 8 -4 7 -9 -2
-15 -7 -4 -17 -5 -21 -3 -12 7 -10 64 2 64 6 0 10 -9 10 -19z m-2904 -16 c-11
-8 -25 -15 -30 -15 -6 0 -2 7 8 15 11 8 25 15 30 15 6 0 2 -7 -8 -15z m1484 5
c0 -5 -7 -10 -15 -10 -8 0 -15 5 -15 10 0 6 7 10 15 10 8 0 15 -4 15 -10z
m-60 -15 c0 -10 10 -15 27 -15 20 0 24 -3 16 -11 -7 -7 -18 -9 -25 -5 -7 4
-29 16 -48 26 l-35 19 33 1 c22 0 32 -5 32 -15z m243 -13 c32 -1 56 -6 53 -11
-7 -11 -216 -5 -228 7 -6 6 14 9 54 7 35 -1 89 -3 121 -3z m1431 -8 c12 -11
16 -34 15 -82 -2 -101 -17 -135 -18 -40 -1 70 -12 107 -24 76 -3 -10 -8 -10
-18 1 -9 9 -9 11 -1 7 8 -5 12 2 12 23 0 34 11 39 34 15z m-3499 -20 c20 -15
20 -15 0 -30 -18 -13 -21 -13 -32 2 -11 15 -8 44 6 44 3 0 15 -8 26 -16z m265
-14 c0 -5 -7 -10 -16 -10 -8 0 -12 5 -9 10 3 6 10 10 16 10 5 0 9 -4 9 -10z
m1953 -10 c9 -11 26 -20 37 -20 12 0 28 -6 36 -12 28 -24 54 -52 54 -59 0 -13
-45 4 -57 21 -7 10 -26 20 -43 23 -17 4 -33 15 -37 24 -4 10 -14 23 -22 30
-14 11 -14 12 -1 13 9 0 23 -9 33 -20z m1122 11 c3 -5 1 -12 -5 -16 -5 -3 -10
1 -10 9 0 18 6 21 15 7z m-1408 -7 c-3 -3 -12 -4 -19 -1 -8 3 -5 6 6 6 11 1
17 -2 13 -5z m692 -42 c0 -20 -4 -46 -9 -57 -8 -18 -9 -17 -11 8 -4 67 -1 99
11 92 6 -3 10 -23 9 -43z m755 26 c-9 -30 -10 -31 -24 -23 -8 5 -6 13 6 26 22
25 27 24 18 -3z m-3434 -29 c0 -20 -4 -28 -12 -23 -6 4 -17 0 -23 -10 -11 -15
-13 -15 -18 4 -3 13 0 23 8 27 8 2 17 13 20 24 9 28 25 13 25 -22z m2147 35
c-3 -3 -12 -4 -19 -1 -8 3 -5 6 6 6 11 1 17 -2 13 -5z m977 -10 c5 -14 -9 -54
-19 -54 -3 0 -5 16 -5 35 0 36 13 47 24 19z m-1064 -14 c0 -5 -6 -10 -14 -10
-8 0 -18 5 -21 10 -3 6 3 10 14 10 12 0 21 -4 21 -10z m1428 -27 c2 -23 9 -33
28 -37 15 -4 24 -14 24 -26 0 -34 -18 -31 -58 12 -35 36 -39 44 -29 65 14 31
31 24 35 -14z m-2318 -30 c0 -19 -3 -24 -10 -17 -6 6 -8 18 -4 27 9 24 14 21
14 -10z m1920 -13 c0 -11 -4 -20 -10 -20 -5 0 -10 9 -10 20 0 11 5 20 10 20 6
0 10 -9 10 -20z m-890 0 c0 -13 -20 -13 -40 0 -12 8 -9 10 13 10 15 0 27 -4
27 -10z m240 -21 c0 -5 -7 -9 -15 -9 -15 0 -20 12 -9 23 8 8 24 -1 24 -14z
m270 -1 c0 -16 -3 -19 -11 -11 -6 6 -8 16 -5 22 11 17 16 13 16 -11z m-2772
-12 c3 -12 -1 -17 -10 -14 -7 3 -15 13 -16 22 -3 12 1 17 10 14 7 -3 15 -13
16 -22z m1267 14 c3 -5 -1 -10 -10 -10 -9 0 -13 5 -10 10 3 6 8 10 10 10 2 0
7 -4 10 -10z m1935 -16 c19 -19 22 -27 11 -33 -10 -6 -10 -14 -3 -28 7 -12 7
-25 2 -34 -7 -10 -11 -6 -16 19 -4 17 -13 32 -20 32 -9 0 -14 12 -14 35 0 42
8 44 40 9z m-1985 6 c-3 -5 1 -10 9 -10 21 0 20 -19 0 -27 -11 -4 -22 1 -30
12 -19 26 -17 35 7 35 11 0 17 -4 14 -10z m1075 0 c0 -5 -4 -10 -9 -10 -6 0
-13 5 -16 10 -3 6 1 10 9 10 9 0 16 -4 16 -10z m94 -2 c-4 -7 -14 -21 -22 -30
-8 -10 -12 -26 -9 -37 2 -10 0 -25 -5 -32 -8 -11 -9 -10 -4 4 3 10 -3 26 -14
37 -17 17 -18 23 -8 40 7 10 24 21 38 23 14 2 26 5 28 6 2 0 0 -5 -4 -11z m81
-56 c-2 -2 -13 -1 -24 3 -26 8 -29 52 -3 57 12 3 19 -5 24 -27 3 -16 5 -31 3
-33z m-1305 33 c0 -8 -4 -15 -10 -15 -5 0 -10 7 -10 15 0 8 5 15 10 15 6 0 10
-7 10 -15z m-1196 -10 c10 -28 -3 -44 -28 -32 -21 10 -21 12 -7 29 19 22 27
23 35 3z m924 4 c-2 -6 -8 -10 -13 -10 -5 0 -11 4 -13 10 -2 6 4 11 13 11 9 0
15 -5 13 -11z m417 1 c3 -5 1 -10 -4 -10 -6 0 -11 5 -11 10 0 6 2 10 4 10 3 0
8 -4 11 -10z m1216 -26 c-8 -31 -35 -44 -44 -21 -6 17 1 28 28 43 25 15 26 14
16 -22z m284 26 c3 -5 1 -10 -4 -10 -6 0 -11 5 -11 10 0 6 2 10 4 10 3 0 8 -4
11 -10z m68 -24 c-4 -18 -10 -22 -26 -18 -15 4 -17 7 -7 10 8 3 19 11 23 18
12 20 15 17 10 -10z m795 -4 c2 -6 -8 -16 -23 -22 -35 -13 -35 -14 -35 14 0
21 4 24 27 23 14 -1 28 -8 31 -15z m-3288 -7 c0 -8 -7 -15 -16 -15 -14 0 -14
3 -4 15 7 8 14 15 16 15 2 0 4 -7 4 -15z m428 5 c23 0 42 -4 42 -10 0 -5 -20
-10 -44 -10 -30 0 -46 -5 -50 -15 -3 -8 -12 -15 -21 -15 -8 0 -15 -7 -15 -15
0 -16 -9 -19 -34 -9 -24 9 -19 24 8 24 25 0 51 22 39 33 -11 11 -195 -5 -222
-20 -30 -15 -107 -17 -116 -3 -4 6 11 10 39 10 25 0 51 6 58 14 21 20 42 23
163 20 61 -2 129 -3 153 -4z m632 -15 c0 -24 -15 -35 -22 -16 -1 5 -23 11 -48
14 -61 8 -62 9 -10 17 79 12 80 12 80 -15z m1300 -17 c0 -10 -4 -18 -10 -18
-5 0 -10 15 -10 33 0 24 3 28 10 17 5 -8 10 -23 10 -32z m-1632 27 c-10 -10
-68 -14 -63 -4 4 5 20 9 37 9 17 0 29 -2 26 -5z m1457 -25 c3 -5 1 -10 -4 -10
-6 0 -11 5 -11 10 0 6 2 10 4 10 3 0 8 -4 11 -10z m345 -21 c0 -11 -4 -17 -10
-14 -5 3 -10 15 -10 26 0 11 5 17 10 14 6 -3 10 -15 10 -26z m-3027 -16 c-8
-52 -13 -54 -13 -5 0 23 4 42 9 42 6 0 7 -17 4 -37z m157 22 c0 -8 -7 -15 -15
-15 -16 0 -20 12 -8 23 11 12 23 8 23 -8z m295 0 c-11 -8 -28 -22 -37 -31 -11
-10 -24 -14 -35 -10 -17 7 -17 8 0 20 9 7 17 18 17 25 0 6 16 11 38 11 35 -1
36 -2 17 -15z m695 5 c0 -5 -4 -10 -9 -10 -6 0 -13 5 -16 10 -3 6 1 10 9 10 9
0 16 -4 16 -10z m1397 -2 c15 -6 31 -11 34 -10 4 1 9 -8 12 -18 7 -27 -23 -27
-46 0 -9 11 -26 20 -37 20 -12 0 -18 5 -15 10 8 13 17 13 52 -2z m-1357 -19
c0 -5 -7 -9 -15 -9 -15 0 -20 12 -9 23 8 8 24 -1 24 -14z m2616 -17 c-24 -3
-38 -22 -16 -22 6 0 10 -7 10 -15 0 -17 -2 -18 -24 -9 -10 4 -16 18 -16 41 0
27 3 34 15 30 8 -4 17 -1 21 5 5 7 12 5 21 -8 13 -17 12 -19 -11 -22z m-3733
14 c3 -8 3 -17 0 -20 -7 -7 -33 13 -33 25 0 15 27 10 33 -5z m1372 5 c-7 -13
-63 -40 -69 -34 -2 3 3 13 12 23 17 19 68 28 57 11z m200 -21 c88 -40 168 -41
239 -5 44 22 62 25 155 24 86 0 214 -13 177 -18 -5 0 10 -14 35 -31 24 -16 55
-43 69 -61 14 -18 33 -40 43 -51 10 -10 20 -32 24 -48 3 -16 12 -35 19 -41 8
-6 14 -22 14 -36 0 -13 7 -26 15 -29 10 -4 15 -20 15 -52 0 -28 6 -52 16 -64
10 -10 19 -38 21 -62 l5 -44 -59 -12 c-32 -6 -71 -13 -88 -16 -16 -4 -50 -12
-75 -19 -25 -8 -57 -16 -71 -19 -14 -3 -46 -24 -70 -46 -58 -52 -69 -51 -69 6
0 41 5 52 49 101 53 60 68 111 55 193 -8 48 -24 58 -56 36 -12 -9 -34 -16 -48
-16 -51 0 -74 33 -95 133 -8 40 -52 79 -79 70 -12 -4 -46 -6 -76 -5 -112 4
-220 -62 -220 -135 0 -21 4 -22 69 -20 51 2 73 -2 87 -14 11 -9 30 -20 44 -24
49 -15 87 -99 69 -153 -12 -38 -6 -49 31 -54 21 -2 25 -8 24 -33 -2 -49 -53
-145 -107 -202 -31 -33 -47 -58 -43 -68 9 -24 60 -18 90 10 15 14 35 25 45 25
9 0 22 5 29 12 21 21 13 -4 -12 -36 -55 -73 -37 -105 40 -67 25 11 54 21 65
21 11 0 32 6 47 14 15 7 52 16 82 19 62 6 199 58 245 93 17 12 44 41 60 63 34
46 52 56 71 40 8 -6 37 -15 66 -19 47 -7 48 -8 16 -9 -40 -1 -47 -11 -23 -31
8 -7 15 -18 15 -25 0 -6 6 -25 14 -41 8 -16 16 -64 18 -107 l3 -77 -35 -10
c-19 -5 -41 -10 -48 -10 -7 0 -34 -8 -60 -19 -26 -10 -76 -26 -112 -36 -80
-21 -277 -79 -345 -101 -36 -12 -93 -17 -197 -19 -117 -1 -151 -5 -165 -17
-10 -9 -28 -19 -40 -22 -11 -4 -27 -13 -33 -21 -7 -8 -20 -15 -29 -15 -22 -1
-46 -23 -122 -115 -37 -44 -77 -89 -89 -100 -12 -11 -37 -43 -56 -71 -58 -87
-144 -169 -144 -136 0 4 7 27 16 52 15 43 15 45 -5 61 -18 15 -21 28 -21 89 0
45 4 69 10 65 6 -4 10 28 10 89 0 66 -4 96 -12 99 -10 3 -13 38 -13 133 0 92
-4 136 -14 154 -25 43 -22 137 6 210 18 46 25 85 25 135 0 64 -5 86 -42 170
-4 11 -11 28 -14 38 -3 10 -15 17 -29 17 -14 0 -30 7 -37 15 -8 9 -30 15 -56
15 -26 0 -44 5 -44 11 0 7 10 9 25 5 14 -4 33 -1 43 5 15 10 24 9 39 -2 11 -8
21 -18 22 -24 3 -13 41 -27 41 -15 0 5 9 12 20 15 11 3 20 12 20 18 0 7 9 23
20 37 15 19 16 28 7 39 -10 12 -8 13 10 9 17 -5 35 6 80 48 31 30 62 54 68 54
19 0 89 39 98 55 4 8 14 15 22 15 8 0 19 9 25 20 16 31 84 26 165 -10z m-878
-13 c-4 -15 -47 -22 -47 -9 0 30 12 41 32 31 10 -6 17 -16 15 -22z m341 14 c3
-8 -1 -12 -9 -9 -7 2 -15 10 -17 17 -3 8 1 12 9 9 7 -2 15 -10 17 -17z m1342
-5 c0 -35 -10 -56 -26 -56 -18 0 -18 8 1 26 17 18 20 34 5 34 -5 0 -10 5 -10
10 0 6 7 10 15 10 9 0 15 -9 15 -24z m285 14 c3 -6 0 -17 -8 -25 -13 -13 -16
-13 -21 1 -10 27 15 47 29 24z m705 0 c0 -5 -7 -10 -16 -10 -8 0 -12 5 -9 10
3 6 10 10 16 10 5 0 9 -4 9 -10z m-3322 -11 c-2 -6 -8 -10 -13 -10 -5 0 -11 4
-13 10 -2 6 4 11 13 11 9 0 15 -5 13 -11z m3278 -7 c-2 -14 -24 -32 -38 -32
-5 0 -8 11 -8 24 0 19 5 24 24 22 13 0 23 -7 22 -14z m-2911 -36 c0 -21 -3
-40 -7 -42 -4 -3 -8 8 -8 25 0 16 -3 37 -7 47 -4 12 -2 15 8 12 9 -3 14 -19
14 -42z m785 30 c0 -24 -18 -28 -30 -6 -9 17 -8 20 10 20 11 0 20 -6 20 -14z
m-115 -6 c-3 -5 -10 -10 -16 -10 -5 0 -9 5 -9 10 0 6 7 10 16 10 8 0 12 -4 9
-10z m1545 0 c0 -5 -4 -10 -10 -10 -5 0 -10 5 -10 10 0 6 5 10 10 10 6 0 10
-4 10 -10z m780 -9 c0 -17 -51 -62 -67 -59 -20 4 -31 30 -12 27 25 -3 43 1 36
8 -9 9 23 44 34 37 5 -3 9 -9 9 -13z m-3390 2 c0 -5 -11 -18 -24 -30 -18 -18
-31 -22 -55 -17 -23 5 -32 2 -37 -10 -10 -25 -24 -19 -24 10 0 20 4 25 16 20
25 -10 94 5 94 20 0 8 7 14 15 14 8 0 15 -3 15 -7z m275 -3 c4 -6 -8 -10 -29
-10 -20 0 -36 5 -36 10 0 6 13 10 29 10 17 0 33 -4 36 -10z m705 0 c0 -5 -7
-10 -15 -10 -8 0 -15 5 -15 10 0 6 7 10 15 10 8 0 15 -4 15 -10z m1243 3 c-7
-2 -19 -2 -25 0 -7 3 -2 5 12 5 14 0 19 -2 13 -5z m74 1 c-3 -3 -12 -4 -19 -1
-8 3 -5 6 6 6 11 1 17 -2 13 -5z m1518 -4 c4 -6 -7 -10 -24 -10 -17 0 -31 5
-31 10 0 6 11 10 24 10 14 0 28 -4 31 -10z m255 6 c0 -3 -4 -8 -10 -11 -5 -3
-10 -1 -10 4 0 6 5 11 10 11 6 0 10 -2 10 -4z m35 -6 c3 -5 -1 -10 -10 -10 -9
0 -13 5 -10 10 3 6 8 10 10 10 2 0 7 -4 10 -10z m-1165 -25 c0 -14 -4 -25 -10
-25 -5 0 -10 11 -10 25 0 14 5 25 10 25 6 0 10 -11 10 -25z m-1695 5 c-3 -5
-10 -10 -16 -10 -5 0 -9 5 -9 10 0 6 7 10 16 10 8 0 12 -4 9 -10z m-295 -8 c0
-14 -11 -21 -26 -15 -8 3 -11 9 -8 14 7 11 34 12 34 1z m2465 -2 c3 -5 1 -10
-4 -10 -6 0 -11 5 -11 10 0 6 2 10 4 10 3 0 8 -4 11 -10z m540 -2 c3 -3 -7 -9
-24 -13 -20 -4 -29 -11 -24 -18 3 -7 -2 -5 -13 4 -10 9 -32 20 -47 25 -23 8
-16 9 36 9 36 0 68 -3 72 -7z m75 2 c0 -5 -9 -10 -21 -10 -11 0 -17 5 -14 10
3 6 13 10 21 10 8 0 14 -4 14 -10z m112 -2 c-9 -9 -15 -9 -24 0 -9 9 -7 12 12
12 19 0 21 -3 12 -12z m-3462 -8 c0 -5 -4 -10 -10 -10 -5 0 -10 5 -10 10 0 6
5 10 10 10 6 0 10 -4 10 -10z m1880 -15 c0 -14 -4 -25 -10 -25 -5 0 -10 11
-10 25 0 14 5 25 10 25 6 0 10 -11 10 -25z m1192 13 c-9 -9 -15 -9 -24 0 -9 9
-7 12 12 12 19 0 21 -3 12 -12z m101 -44 c4 -8 21 -14 37 -14 19 0 30 -5 30
-14 0 -17 -33 -31 -38 -17 -2 6 -10 11 -18 11 -8 0 -17 7 -20 15 -3 8 -14 17
-25 20 -10 4 -19 13 -19 21 0 12 4 13 23 3 12 -7 26 -18 30 -25z m-3209 11
c-4 -8 -10 -12 -15 -9 -11 6 -2 24 11 24 5 0 7 -7 4 -15z m1676 -20 c0 -19 -4
-35 -10 -35 -11 0 -14 53 -3 63 11 12 13 8 13 -28z m590 25 c0 -5 -4 -10 -10
-10 -5 0 -10 5 -10 10 0 6 5 10 10 10 6 0 10 -4 10 -10z m1270 -14 c0 -15 -7
-26 -20 -29 -23 -6 -27 16 -7 38 18 21 27 18 27 -9z m766 9 c10 -24 -14 -44
-44 -39 -34 7 -42 14 -14 14 11 0 24 5 27 10 4 6 -5 10 -19 10 -14 0 -26 5
-26 10 0 17 70 12 76 -5z m54 5 c0 -5 -4 -10 -10 -10 -5 0 -10 5 -10 10 0 6 5
10 10 10 6 0 10 -4 10 -10z m-4116 -37 c-14 -10 -15 -16 -6 -25 11 -11 17 -58
7 -58 -2 0 -15 5 -29 11 -32 15 -42 49 -15 56 10 3 19 13 19 23 0 10 8 20 18
22 24 5 28 -13 6 -29z m2544 31 c12 -4 22 -12 22 -19 0 -8 -8 -11 -20 -8 -16
4 -20 0 -20 -18 0 -18 -3 -20 -9 -10 -6 10 -11 5 -16 -19 -5 -22 -10 -29 -17
-22 -14 14 9 102 26 102 6 0 21 -3 34 -6z m580 -24 c6 0 14 -5 17 -10 8 -12
-44 -70 -63 -70 -7 0 -10 -4 -7 -10 9 -14 42 -12 48 3 2 6 8 9 12 5 13 -12
-16 -38 -42 -38 -13 0 -33 5 -44 10 -22 12 -26 40 -5 40 8 0 16 7 20 15 3 8
15 15 26 15 24 0 27 25 4 38 -11 6 -14 14 -9 22 6 10 11 9 20 -3 7 -10 17 -17
23 -17z m-3643 -10 c-4 -11 -2 -20 4 -20 6 0 11 -7 11 -15 0 -9 9 -15 25 -15
18 0 23 4 19 15 -4 8 -10 15 -16 15 -5 0 -6 5 -3 10 3 6 20 10 37 10 25 0 29
-3 23 -17 -4 -10 -7 -26 -7 -35 1 -15 -8 -18 -54 -18 -35 0 -53 4 -49 10 3 6
-3 22 -14 36 -23 29 -20 44 10 44 16 0 19 -5 14 -20z m4665 10 c0 -5 -4 -10
-9 -10 -6 0 -13 5 -16 10 -3 6 1 10 9 10 9 0 16 -4 16 -10z m-2406 -31 c-3 -5
-12 -9 -20 -9 -17 0 -19 -16 -3 -26 8 -4 7 -9 -2 -15 -25 -16 -31 -10 -24 24
10 44 24 60 41 46 8 -6 11 -15 8 -20z m227 -60 c-11 -10 -23 -19 -27 -19 -12
0 5 59 23 80 18 21 18 21 21 -11 2 -21 -3 -37 -17 -50z m1359 56 c0 -14 -4
-25 -10 -25 -5 0 -10 11 -10 25 0 14 5 25 10 25 6 0 10 -11 10 -25z m-3910 6
c0 -17 -12 -41 -21 -41 -10 0 -12 33 -2 43 9 10 23 9 23 -2z m310 -12 c0 -5
-4 -9 -10 -9 -5 0 -10 7 -10 16 0 8 5 12 10 9 6 -3 10 -10 10 -16z m2878 -17
c-8 -53 -41 -162 -50 -162 -12 0 -9 46 4 76 11 23 10 28 -10 44 -31 25 -30 54
2 46 18 -4 25 -1 29 14 10 37 30 23 25 -18z m1596 30 c2 -4 -4 -8 -14 -8 -10
0 -16 4 -14 8 3 4 9 8 14 8 5 0 11 -4 14 -8z m-50 -21 c27 -29 15 -46 -13 -22
-13 12 -32 21 -42 21 -10 0 -21 5 -24 10 -12 19 61 11 79 -9z m-2334 0 c0 -13
-26 -32 -33 -24 -14 13 -6 33 13 33 11 0 20 -4 20 -9z m2510 -31 c9 -16 8 -20
-5 -20 -8 0 -15 5 -15 10 0 6 -6 10 -14 10 -8 0 -18 5 -21 10 -3 6 5 10 19 10
15 0 30 -8 36 -20z m-4150 0 c0 -5 -5 -10 -11 -10 -5 0 -7 5 -4 10 3 6 8 10
11 10 2 0 4 -4 4 -10z m3130 1 c0 -6 -4 -13 -10 -16 -5 -3 -10 1 -10 9 0 9 5
16 10 16 6 0 10 -4 10 -9z m-3934 -28 c-5 -16 -3 -29 5 -33 6 -4 9 -12 5 -18
-4 -7 -17 -5 -37 5 l-30 15 28 29 c35 35 37 35 29 2z m562 -4 c-16 -10 -33 5
-23 21 5 8 11 8 21 -1 12 -10 12 -14 2 -20z m1832 21 c0 -5 -7 -7 -15 -4 -8 4
-15 8 -15 10 0 2 7 4 15 4 8 0 15 -4 15 -10z m870 -25 c0 -24 5 -35 15 -35 10
0 15 -10 15 -30 0 -39 -26 -40 -34 -2 -15 82 -16 102 -6 102 5 0 10 -16 10
-35z m-3180 10 c0 -10 -10 -15 -27 -15 -27 1 -27 1 -9 15 25 19 36 19 36 0z
m2020 5 c0 -5 -4 -10 -10 -10 -5 0 -10 5 -10 10 0 6 5 10 10 10 6 0 10 -4 10
-10z m2189 -6 c3 -3 0 -8 -6 -12 -8 -5 -9 -13 -3 -22 7 -12 12 -12 22 -2 6 6
19 12 28 12 10 0 8 -6 -10 -20 -28 -22 -50 -26 -50 -9 0 7 -10 20 -22 31 -18
15 -32 18 -60 14 -40 -7 -54 9 -15 17 25 6 108 0 116 -9z m551 -14 c0 -21 -15
-27 -25 -10 -7 12 2 30 16 30 5 0 9 -9 9 -20z m-2410 -19 c0 -10 7 -21 15 -25
22 -8 18 -36 -5 -36 -11 0 -20 3 -21 8 -4 41 -3 72 4 72 4 0 7 -9 7 -19z
m1635 9 c30 0 36 -3 25 -10 -8 -5 -43 -10 -77 -10 -52 0 -63 3 -63 16 0 14 7
15 38 10 20 -3 55 -6 77 -6z m-217 -30 l23 -30 -25 0 c-13 0 -26 6 -29 14 -3
8 -19 17 -36 21 -48 10 -47 25 2 25 36 0 47 -5 65 -30z m1202 20 c0 -5 -4 -10
-10 -10 -5 0 -10 5 -10 10 0 6 5 10 10 10 6 0 10 -4 10 -10z m-2565 -10 c3 -5
1 -10 -4 -10 -6 0 -11 5 -11 10 0 6 2 10 4 10 3 0 8 -4 11 -10z m36 -9 c6 11
9 10 15 -4 3 -10 4 -20 1 -24 -11 -11 -37 6 -36 24 0 12 2 14 6 4 5 -11 7 -11
14 0z m2369 -12 c0 -11 9 -28 20 -37 22 -19 38 -72 22 -72 -6 0 -13 8 -17 19
-3 10 -19 31 -35 47 -32 31 -37 49 -17 57 22 10 27 7 27 -14z m-4929 -7 c10 2
13 -5 11 -22 -5 -32 -11 -38 -22 -20 -6 10 -10 0 -12 -30 -4 -55 -22 -51 -25
5 -3 61 5 89 21 76 8 -7 20 -10 27 -9z m4999 -2 c0 -11 -4 -20 -10 -20 -5 0
-10 9 -10 20 0 11 5 20 10 20 6 0 10 -9 10 -20z m-4707 -40 c-6 -22 -23 -38
-23 -21 0 17 12 41 20 41 5 0 6 -9 3 -20z m2255 -2 c-2 -16 -9 -22 -22 -20
-16 3 -18 -1 -13 -25 7 -36 -3 -113 -14 -113 -5 0 -9 30 -9 67 0 55 4 71 22
90 27 29 40 29 36 1z m1812 -15 c-1 -25 -2 -26 -14 -11 -7 10 -16 15 -19 11
-4 -3 -7 -1 -7 5 0 10 15 19 33 21 4 1 7 -11 7 -26z m770 6 c0 -5 -7 -9 -15
-9 -15 0 -20 12 -9 23 8 8 24 -1 24 -14z m-4675 -7 c0 -18 -20 -15 -23 4 -3
10 1 15 10 12 7 -3 13 -10 13 -16z m-210 -2 c3 -5 -1 -10 -9 -10 -9 0 -16 5
-16 10 0 6 4 10 9 10 6 0 13 -4 16 -10z m3125 -31 c0 -18 -4 -28 -10 -24 -5 3
-10 20 -10 36 0 18 4 28 10 24 6 -3 10 -20 10 -36z m-100 0 c0 -20 -15 -26
-25 -9 -9 15 3 43 15 35 5 -3 10 -15 10 -26z m1918 9 c-4 -31 -48 -39 -48 -10
0 20 12 30 38 31 8 1 12 -8 10 -21z m-4995 -5 c4 -3 2 -12 -4 -20 -9 -10 -7
-13 10 -13 11 0 21 -4 21 -10 0 -15 -40 -12 -57 5 -8 9 -12 22 -9 30 6 15 28
20 39 8z m62 -14 c-10 -15 -25 -10 -19 6 4 8 10 12 15 9 5 -3 7 -10 4 -15z
m255 -9 c22 -22 25 -30 11 -30 -12 0 -41 29 -41 41 0 14 8 11 30 -11z m-67
-10 c4 -16 0 -20 -19 -20 -17 0 -24 6 -24 20 0 13 7 20 19 20 10 0 21 -9 24
-20z m-316 -20 c3 -11 9 -20 14 -20 5 0 9 -4 9 -10 0 -13 -87 -13 -95 -1 -3 5
4 12 15 16 11 3 19 9 19 13 -4 29 31 31 38 2z m543 10 c0 -5 -13 -10 -30 -10
-20 0 -30 -5 -30 -15 0 -8 8 -15 18 -15 10 0 26 -9 35 -21 20 -23 27 -96 11
-107 -6 -4 -13 -17 -17 -30 -5 -21 -2 -23 25 -20 36 3 49 -17 18 -27 -19 -6
-20 -12 -14 -52 5 -33 4 -44 -5 -39 -6 4 -11 22 -11 41 0 20 -6 35 -15 39 -9
3 -15 11 -14 18 3 27 -2 36 -21 41 -27 7 -25 26 4 37 14 5 29 17 34 27 12 23
-2 63 -22 63 -8 0 -19 7 -24 16 -5 9 -18 14 -31 12 -26 -4 -29 -22 -4 -26 25
-5 31 -13 36 -42 4 -20 1 -26 -14 -26 -10 0 -19 4 -19 9 0 4 -18 25 -40 46
-41 39 -49 53 -27 50 20 -4 65 12 78 27 13 16 79 19 79 4z m4340 0 c0 -5 -4
-10 -10 -10 -5 0 -10 5 -10 10 0 6 5 10 10 10 6 0 10 -4 10 -10z m-1710 -40
c0 -22 5 -49 12 -60 14 -22 8 -33 -16 -24 -12 5 -16 20 -16 65 0 33 4 59 10
59 6 0 10 -18 10 -40z m617 34 c-3 -3 -12 -4 -19 -1 -8 3 -5 6 6 6 11 1 17 -2
13 -5z m481 -17 c3 -14 -2 -16 -28 -10 -27 5 -31 3 -28 -12 2 -10 -3 -20 -9
-22 -22 -8 -14 35 10 52 27 19 51 16 55 -8z m675 -8 c-7 -25 -43 -25 -43 0 0
20 17 31 36 24 7 -2 10 -13 7 -24z m-1029 13 c2 -4 -7 -9 -22 -10 -15 -1 -28
-7 -30 -12 -5 -13 -62 -13 -62 0 0 23 101 43 114 22z m-3647 -18 c2 -5 -3 -19
-12 -29 -14 -19 -14 -18 -15 13 0 31 18 42 27 16z m321 4 c7 -7 12 -26 11 -42
0 -17 -3 -25 -6 -18 -3 7 -16 17 -28 22 -17 7 -22 14 -18 29 6 23 23 27 41 9z
m2722 -40 c0 -10 -40 -1 -54 12 -5 5 -6 16 -2 26 6 15 9 15 31 -6 14 -13 25
-28 25 -32z m-3502 11 c36 19 25 5 -13 -18 l-35 -20 0 31 c0 29 1 30 13 14 11
-15 17 -17 35 -7z m4496 2 c7 -10 -32 -47 -40 -38 -7 7 14 47 26 47 5 0 11 -4
14 -9z m856 -15 c0 -22 -16 -36 -41 -36 -5 0 -9 7 -9 15 0 8 7 15 15 15 8 0
15 7 15 15 0 8 5 15 10 15 6 0 10 -11 10 -24z m-5215 4 c-3 -5 -15 -10 -26
-10 -10 0 -19 5 -19 10 0 6 12 10 26 10 14 0 23 -4 19 -10z m3960 0 c4 -6 -5
-10 -19 -10 -14 0 -26 5 -26 10 0 6 9 10 19 10 11 0 23 -4 26 -10z m-557 -29
c3 -8 -1 -12 -9 -9 -7 2 -15 10 -17 17 -3 8 1 12 9 9 7 -2 15 -10 17 -17z
m-998 -1 c0 -5 -4 -10 -10 -10 -5 0 -10 5 -10 10 0 6 5 10 10 10 6 0 10 -4 10
-10z m1630 -5 c0 -8 -9 -15 -19 -15 -24 0 -36 16 -19 23 24 10 38 7 38 -8z
m1220 11 c0 -11 -19 -15 -25 -6 -3 5 1 10 9 10 9 0 16 -2 16 -4z m-5334 -31
c-16 -15 -25 -32 -22 -40 3 -8 1 -17 -4 -20 -6 -4 -10 -1 -10 5 0 6 -10 15
-22 20 -14 5 -17 9 -8 10 8 0 26 12 39 25 13 14 30 25 39 25 10 0 7 -8 -12
-25z m4172 -14 c-9 -16 -10 -24 -2 -29 15 -9 23 -81 13 -109 -7 -19 -5 -23 11
-23 10 0 22 -4 25 -10 4 -6 -30 -10 -94 -10 -56 0 -101 2 -101 4 0 2 18 15 40
29 26 18 41 23 46 16 4 -6 0 -15 -7 -20 -10 -6 -4 -9 19 -9 26 0 32 4 32 22 0
12 -8 30 -17 41 -14 15 -15 21 -5 24 9 3 11 15 6 39 -4 21 -2 34 4 34 6 0 14
9 17 21 5 14 10 18 17 11 6 -6 5 -17 -4 -31z m-3398 -67 c0 -83 -3 -91 -28
-75 -10 6 -11 13 -1 35 9 20 10 35 1 63 -7 24 -8 42 -1 55 19 35 29 7 29 -78z
m-900 61 c0 -14 -4 -25 -10 -25 -5 0 -10 11 -10 25 0 14 5 25 10 25 6 0 10
-11 10 -25z m2632 6 c-1 -8 7 -11 20 -9 19 2 23 -2 23 -22 0 -29 -29 -40 -39
-13 -3 10 -10 28 -16 41 -8 18 -7 23 3 19 6 -2 11 -10 9 -16z m768 3 c0 -17
-22 -14 -28 4 -2 7 3 12 12 12 9 0 16 -7 16 -16z m240 1 c10 -12 10 -15 -4
-15 -9 0 -16 7 -16 15 0 8 2 15 4 15 2 0 9 -7 16 -15z m1850 -1 c0 -8 -5 -12
-10 -9 -6 4 -8 11 -5 16 9 14 15 11 15 -7z m-2927 -13 c-3 -10 -16 -21 -29
-24 l-24 -4 22 22 c29 29 38 30 31 6z m2067 -1 c0 -11 -6 -20 -13 -20 -21 0
-27 11 -14 26 17 19 27 17 27 -6z m488 6 c-10 -7 -18 -18 -18 -25 0 -20 -35
-11 -53 14 l-18 25 53 0 c46 -1 51 -2 36 -14z m298 -12 c13 -14 24 -31 24 -39
0 -7 6 -16 13 -18 7 -3 5 -6 -5 -6 -10 -1 -18 -5 -18 -11 0 -5 -11 -10 -25
-10 -25 0 -33 14 -15 25 16 10 12 55 -5 55 -16 0 -20 12 -8 23 10 11 14 9 39
-19z m-1834 -5 c64 -1 89 -6 106 -19 12 -10 22 -23 22 -29 0 -6 7 -11 15 -11
11 0 15 -12 15 -50 0 -34 5 -52 16 -58 9 -5 16 -22 17 -38 2 -63 -3 -197 -8
-192 -3 3 -7 50 -10 104 -2 55 -4 106 -4 114 -1 11 -4 11 -13 2 -7 -7 -16 -12
-22 -12 -5 0 -7 3 -3 6 3 4 -3 14 -15 24 -22 17 -18 40 8 40 8 0 14 10 14 25
0 14 -4 25 -10 25 -5 0 -20 11 -33 24 -23 23 -30 24 -155 24 -141 0 -146 -2
-161 -55 -8 -26 -9 -25 -16 20 -7 44 2 79 12 50 6 -16 33 -17 33 -2 0 6 11 8
28 4 20 -4 33 -1 42 10 9 11 16 12 25 5 7 -6 50 -11 97 -11z m1628 -9 c0 -5
-11 -12 -25 -16 -14 -3 -25 -10 -25 -15 0 -6 -10 -5 -21 2 l-21 11 23 13 c29
16 69 19 69 5z m-540 -39 c0 -8 7 -22 16 -32 9 -10 14 -26 11 -36 -4 -16 -6
-15 -12 5 -5 16 -15 22 -35 22 -21 0 -28 4 -26 17 2 9 8 19 14 21 7 2 12 13
12 25 0 18 2 19 10 7 5 -8 10 -21 10 -29z m855 0 c36 -27 33 -33 -17 -35 -31
-2 -38 1 -38 16 0 10 4 18 9 18 5 0 7 10 4 23 -3 12 -1 18 4 12 4 -6 22 -21
38 -34z m-2935 19 c0 -5 -4 -10 -10 -10 -5 0 -10 5 -10 10 0 6 5 10 10 10 6 0
10 -4 10 -10z m-2620 -30 c0 -10 -4 -22 -10 -25 -6 -4 -10 7 -10 25 0 18 4 29
10 25 6 -3 10 -15 10 -25z m607 8 c-3 -8 -6 -5 -6 6 -1 11 2 17 5 13 3 -3 4
-12 1 -19z m4529 -5 c-10 -10 -19 5 -10 18 6 11 8 11 12 0 2 -7 1 -15 -2 -18z
m-5026 8 c0 -6 -4 -13 -10 -16 -5 -3 -10 1 -10 9 0 9 5 16 10 16 6 0 10 -4 10
-9z m369 -150 c1 -100 -2 -162 -9 -166 -10 -6 -15 30 -11 98 3 44 -5 48 -21
10 l-12 -28 -4 39 c-3 30 1 44 16 55 14 12 20 31 21 76 2 55 7 75 16 75 2 0 4
-72 4 -159z m4781 134 c0 -8 -4 -15 -10 -15 -5 0 -10 7 -10 15 0 8 5 15 10 15
6 0 10 -7 10 -15z m-2740 -5 c0 -5 -4 -10 -10 -10 -5 0 -10 5 -10 10 0 6 5 10
10 10 6 0 10 -4 10 -10z m60 0 c0 -5 -4 -10 -10 -10 -5 0 -10 5 -10 10 0 6 5
10 10 10 6 0 10 -4 10 -10z m275 -10 c-3 -5 -26 -10 -49 -10 -34 0 -47 -5 -59
-22 -8 -13 -18 -20 -22 -16 -4 4 0 19 9 33 14 22 24 25 72 25 34 0 53 -4 49
-10z m484 1 c8 -5 15 -27 15 -53 1 -37 -2 -43 -21 -46 -27 -4 -30 13 -5 27 16
9 16 11 0 38 -15 24 -23 28 -60 26 -35 -1 -38 0 -18 7 34 11 72 11 89 1z m884
2 c-7 -2 -19 -2 -25 0 -7 3 -2 5 12 5 14 0 19 -2 13 -5z m-4158 -13 c4 -6 4
-18 1 -27 -5 -12 -9 -13 -21 -3 -12 10 -13 8 -10 -11 7 -33 -3 -41 -31 -22
l-25 16 28 27 c30 30 48 36 58 20z m5105 0 c0 -5 -2 -10 -4 -10 -3 0 -8 5 -11
10 -3 6 -1 10 4 10 6 0 11 -4 11 -10z m-4829 -68 c2 -48 -2 -67 -16 -82 -28
-31 -35 -24 -35 34 0 39 4 55 15 60 8 3 15 14 15 24 0 18 10 35 16 29 2 -2 4
-31 5 -65z m303 -41 c19 -21 19 -21 -2 -21 -21 0 -22 -5 -22 -84 0 -47 -4 -88
-10 -91 -5 -3 -10 0 -11 7 -2 39 -1 247 1 273 2 27 4 25 14 -17 6 -25 20 -56
30 -67z m2306 91 c0 -4 -9 -15 -20 -25 -17 -14 -20 -29 -20 -97 0 -52 -4 -79
-10 -75 -11 7 -14 188 -3 198 9 10 53 9 53 -1z m193 -2 c37 -1 47 -3 36 -10
-8 -5 -33 -7 -55 -6 -21 2 -45 4 -51 5 -7 1 -13 6 -13 12 0 6 7 8 16 5 9 -3
39 -6 67 -6z m1037 -5 c0 -8 -4 -15 -10 -15 -5 0 -10 7 -10 15 0 8 5 15 10 15
6 0 10 -7 10 -15z m-3479 -25 c13 0 57 -49 64 -72 4 -10 13 -18 21 -18 9 0 14
-11 14 -33 0 -36 -25 -97 -40 -97 -20 0 -20 22 -1 46 15 19 19 34 14 53 -7 31
-24 44 -37 31 -18 -18 -29 -10 -13 8 20 22 13 32 -20 32 -16 0 -23 6 -23 19 0
11 -4 22 -10 26 -5 3 -6 13 -3 21 5 15 7 15 15 0 5 -9 13 -16 19 -16z m4509
-30 c0 -27 -4 -52 -10 -55 -6 -4 -10 17 -10 55 0 38 4 59 10 55 6 -3 10 -28
10 -55z m390 41 c0 -6 -4 -13 -10 -16 -5 -3 -10 1 -10 9 0 9 5 16 10 16 6 0
10 -4 10 -9z m-5641 -84 l-14 -42 -3 49 c-2 27 0 56 3 65 6 13 9 13 18 -7 7
-16 6 -33 -4 -65z m2743 51 c-7 -7 -12 -8 -12 -2 0 14 12 26 19 19 2 -3 -1
-11 -7 -17z m361 -12 c37 -34 40 -54 6 -33 -15 9 -21 9 -27 0 -8 -13 -102 -16
-102 -3 0 16 51 41 70 35 12 -4 20 -2 20 4 0 6 -12 11 -27 11 -22 0 -25 2 -13
10 24 16 35 12 73 -24z m1696 7 c0 -25 -1 -26 -9 -8 -12 27 -12 35 0 35 6 0
10 -12 9 -27z m-1627 -15 c-9 -9 -12 -7 -12 12 0 19 3 21 12 12 9 -9 9 -15 0
-24z m568 3 c0 -6 -4 -13 -10 -16 -5 -3 -10 1 -10 9 0 9 5 16 10 16 6 0 10 -4
10 -9z m1960 -6 c0 -16 -35 -21 -44 -6 -8 12 4 21 26 21 10 0 18 -7 18 -15z
m-4725 -5 c4 -6 4 -18 1 -27 -5 -12 -9 -13 -21 -3 -8 7 -15 19 -15 26 0 16 26
19 35 4z m1745 3 c0 -10 -110 -113 -120 -113 -11 0 -13 12 -4 34 3 9 15 16 25
16 10 0 19 4 19 9 0 18 42 61 61 61 10 0 19 -3 19 -7z m1730 -3 c0 -5 -7 -7
-15 -4 -8 4 -15 8 -15 10 0 2 7 4 15 4 8 0 15 -4 15 -10z m-4270 -49 c0 -43
-15 -63 -23 -31 -4 14 -11 18 -24 14 -16 -5 -16 -4 -2 8 8 7 18 21 22 31 11
31 27 18 27 -22z m3521 16 c-13 -13 -26 -3 -16 12 3 6 11 8 17 5 6 -4 6 -10
-1 -17z m1139 8 c0 -10 -10 -15 -30 -15 -36 0 -38 7 -7 20 32 13 37 12 37 -5z
m-2242 -17 c-2 -16 -9 -22 -20 -20 -13 2 -18 -4 -18 -23 0 -14 -5 -25 -11 -25
-6 0 -8 14 -4 36 7 47 12 54 36 54 15 0 20 -6 17 -22z m1919 -7 c0 -11 -5 -17
-9 -15 -14 9 -20 -24 -8 -45 6 -12 7 -21 2 -21 -18 0 -32 26 -32 62 0 34 3 38
24 38 18 0 24 -5 23 -19z m-847 -11 c0 -5 -4 -10 -10 -10 -5 0 -10 5 -10 10 0
6 5 10 10 10 6 0 10 -4 10 -10z m1100 -50 c0 -33 -4 -60 -10 -60 -6 0 -10 27
-10 60 0 33 4 60 10 60 6 0 10 -27 10 -60z m440 50 c0 -5 -5 -10 -11 -10 -5 0
-7 5 -4 10 3 6 8 10 11 10 2 0 4 -4 4 -10z m-1850 -25 c0 -28 -3 -29 -31 -15
-31 17 -22 32 24 39 4 0 7 -10 7 -24z m-3363 -7 c-3 -8 -6 -5 -6 6 -1 11 2 17
5 13 3 -3 4 -12 1 -19z m3728 12 c-3 -5 -11 -10 -16 -10 -6 0 -7 5 -4 10 3 6
11 10 16 10 6 0 7 -4 4 -10z m1905 -23 c-1 -21 -1 -21 -15 -3 -8 10 -12 23 -9
28 9 14 24 -2 24 -25z m-5285 2 c7 -22 -7 -39 -32 -39 -7 0 -13 -5 -13 -12 0
-6 -3 -8 -7 -5 -3 4 -12 2 -20 -4 -10 -9 -13 -4 -13 30 0 39 19 61 20 24 1
-15 3 -15 18 4 22 28 39 29 47 2z m4832 -24 c-8 -56 1 -105 19 -105 8 0 14 -9
14 -20 0 -11 -5 -20 -11 -20 -6 0 -13 9 -16 20 -3 11 -9 20 -14 20 -5 0 -9 34
-8 75 1 44 5 75 11 75 7 0 8 -17 5 -45z m-1493 7 c2 -4 0 -16 -5 -27 -7 -17
-8 -18 -8 -2 -1 12 -8 17 -23 15 -24 -3 -28 1 -28 26 0 12 6 13 30 4 17 -5 32
-13 34 -16z m-2764 -12 c0 -28 -13 -40 -24 -22 -7 12 5 52 15 52 5 0 9 -13 9
-30z m-899 -25 c27 -39 31 -41 49 -20 11 13 14 12 26 -11 16 -31 18 -64 4 -64
-5 0 -10 7 -10 15 0 21 -47 19 -59 -2 -8 -14 -10 -8 -11 28 0 38 -4 48 -20 52
-11 3 -20 12 -20 21 0 26 16 19 41 -19z m3300 2 c-8 -8 -11 -7 -11 4 0 9 3 19
7 23 4 4 9 2 11 -4 3 -7 -1 -17 -7 -23z m1134 23 c-3 -5 -10 -10 -16 -10 -5 0
-9 5 -9 10 0 6 7 10 16 10 8 0 12 -4 9 -10z m1199 -38 c-7 -35 -34 -44 -34
-12 0 11 5 20 11 20 6 0 9 6 6 14 -7 17 4 29 15 18 5 -5 5 -23 2 -40z m-5513
-15 c-14 -14 -26 17 -16 41 6 15 8 14 16 -7 6 -16 6 -28 0 -34z m2779 -17 c0
-33 -4 -60 -10 -60 -6 0 -10 27 -10 60 0 33 4 60 10 60 6 0 10 -27 10 -60z
m-2450 34 c0 -8 -4 -12 -10 -9 -5 3 -10 10 -10 16 0 5 5 9 10 9 6 0 10 -7 10
-16z m3121 -37 c-8 -8 -11 -4 -11 14 0 33 14 47 18 19 2 -12 -1 -27 -7 -33z
m803 45 c3 -5 -5 -20 -17 -32 l-21 -24 -7 25 c-3 13 -4 27 -2 32 6 10 41 9 47
-1z m-1094 -6 c0 -3 -11 -17 -25 -32 -18 -19 -25 -23 -25 -11 0 17 26 47 41
47 5 0 9 -2 9 -4z m-3060 -41 c0 -14 -4 -25 -10 -25 -11 0 -14 33 -3 43 11 11
13 8 13 -18z m4560 9 c0 -8 -5 -12 -10 -9 -6 4 -8 11 -5 16 9 14 15 11 15 -7z
m-4360 -43 c-9 -34 -15 -41 -35 -41 -31 0 -44 21 -20 34 10 6 27 21 38 33 27
30 31 24 17 -26z m3880 39 c0 -5 -4 -10 -10 -10 -5 0 -10 5 -10 10 0 6 5 10
10 10 6 0 10 -4 10 -10z m-3770 -37 c0 -14 7 -35 17 -45 15 -16 15 -18 0 -18
-9 0 -22 -12 -29 -27 -8 -18 -23 -29 -38 -31 -22 -3 -23 -2 -9 10 22 18 30 56
17 78 -13 20 -3 54 12 45 5 -3 10 -1 10 4 0 6 5 11 10 11 6 0 10 -12 10 -27z
m3020 7 c0 -5 -4 -10 -10 -10 -5 0 -10 5 -10 10 0 6 5 10 10 10 6 0 10 -4 10
-10z m720 6 c0 -3 -4 -8 -10 -11 -5 -3 -10 -1 -10 4 0 6 5 11 10 11 6 0 10 -2
10 -4z m-1073 -12 c-3 -3 -12 -4 -19 -1 -8 3 -5 6 6 6 11 1 17 -2 13 -5z
m2403 -8 c0 -2 -7 -6 -15 -10 -8 -3 -15 -1 -15 4 0 6 7 10 15 10 8 0 15 -2 15
-4z m-5391 -36 c6 0 11 -4 11 -10 0 -14 -23 -13 -38 2 -7 7 -12 19 -12 28 1
13 3 12 14 -2 7 -10 18 -18 25 -18z m461 11 c0 -11 -4 -23 -10 -26 -6 -4 -10
5 -10 19 0 14 5 26 10 26 6 0 10 -9 10 -19z m4148 2 c-2 -9 -13 -18 -25 -19
-27 -5 -29 4 -5 22 23 18 34 17 30 -3z m-1678 -3 c0 -13 -28 -25 -38 -16 -3 4
0 11 8 16 20 13 30 12 30 0z m391 -81 c10 -10 24 -19 30 -19 13 0 8 -40 -6
-43 -5 -1 -11 8 -13 20 -3 18 -12 24 -43 29 -29 5 -39 11 -39 26 0 10 7 21 15
24 8 4 15 14 15 23 0 35 15 32 18 -4 2 -20 12 -45 23 -56z m752 71 c19 -23 22
-40 7 -40 -5 0 -10 6 -10 14 0 7 -9 16 -21 19 -12 3 -18 10 -14 16 9 16 18 14
38 -9z m63 -17 c-11 -11 -17 4 -9 23 7 18 8 18 11 1 2 -10 1 -21 -2 -24z m724
33 c0 -2 -7 -9 -15 -16 -12 -10 -15 -10 -15 4 0 9 7 16 15 16 8 0 15 -2 15 -4z
m-2724 -14 c13 -8 34 -46 34 -61 0 -6 -25 -8 -67 -4 -64 5 -70 3 -110 -25 -37
-28 -97 -104 -131 -167 -7 -14 -43 -51 -79 -82 -36 -32 -90 -82 -120 -110 -53
-52 -66 -59 -97 -47 -19 7 -22 60 -3 67 7 2 8 8 3 13 -5 5 -11 4 -13 -3 -3 -7
-10 -13 -16 -13 -6 0 -19 -8 -29 -17 -28 -25 -168 -22 -228 5 -95 44 -133 106
-110 176 12 36 71 96 94 96 8 0 16 7 20 15 3 8 16 15 29 15 14 0 30 7 37 15
14 17 105 21 115 5 3 -5 23 -14 45 -20 59 -16 98 -71 102 -143 3 -60 18 -78
30 -36 11 41 37 143 42 170 7 35 69 64 231 109 44 12 96 28 115 35 40 15 90
18 106 7z m669 -1 c3 -5 1 -12 -5 -16 -5 -3 -10 1 -10 9 0 18 6 21 15 7z
m2722 -7 c2 -6 -11 -11 -32 -12 -19 -1 -35 3 -35 7 0 21 60 25 67 5z m-5682
-21 c-6 -29 -45 -76 -45 -56 0 6 6 16 14 22 7 6 11 22 8 36 -3 19 0 25 13 25
14 0 16 -6 10 -27z m2905 -8 c0 -17 -36 -20 -45 -5 -4 6 -4 18 -1 26 4 12 10
13 26 4 11 -6 20 -17 20 -25z m859 -12 c0 -41 -2 -45 -11 -26 -10 20 -4 73 7
73 3 0 5 -21 4 -47z m1293 31 c10 -9 -3 -42 -19 -49 -22 -8 -26 0 -19 30 6 23
25 33 38 19z m-2003 -101 c1 -13 -3 -23 -9 -23 -5 0 -10 9 -10 19 0 11 -7 26
-15 35 -19 19 -19 22 3 44 16 17 17 16 24 -18 4 -19 7 -45 7 -57z m-2929 77
c0 -5 -9 -14 -20 -20 -15 -8 -20 -8 -20 3 0 8 3 17 7 20 10 10 33 8 33 -3z
m4570 -30 c0 -22 -4 -40 -10 -40 -5 0 -10 18 -10 40 0 22 5 40 10 40 6 0 10
-18 10 -40z m1040 26 c0 -20 -16 -36 -36 -36 -26 0 -30 10 -12 28 11 11 48 17
48 8z m-1459 -19 c-1 -12 -15 -9 -19 4 -3 6 1 10 8 8 6 -3 11 -8 11 -12z
m-1771 -37 c0 -34 -13 -45 -30 -25 -6 7 -17 12 -23 10 -7 -2 -25 -6 -40 -9
-25 -6 -28 -10 -23 -37 6 -39 12 -45 31 -29 13 11 15 8 15 -19 0 -28 -3 -31
-31 -31 -24 0 -30 4 -25 15 3 9 -1 18 -8 21 -8 3 -17 26 -21 51 -4 25 -9 52
-12 60 -4 10 6 13 48 12 30 -1 59 -6 66 -11 15 -12 33 -2 33 18 0 8 5 12 10 9
6 -3 10 -19 10 -35z m450 31 c0 -13 -28 -22 -35 -11 -3 4 1 11 7 13 20 8 28 8
28 -2z m2138 -8 c2 -7 -3 -13 -12 -13 -20 0 -20 -14 -1 -34 19 -19 33 -106 16
-106 -6 0 -11 16 -11 35 0 22 -6 38 -15 41 -19 8 -27 36 -19 69 7 27 33 32 42
8z m-5163 -6 c10 -8 15 -19 11 -26 -6 -9 -13 -8 -27 5 -33 30 -20 47 16 21z
m-45 -28 c0 -6 -4 -7 -10 -4 -5 3 -10 11 -10 16 0 6 5 7 10 4 6 -3 10 -11 10
-16z m4430 11 c0 -5 -4 -10 -10 -10 -5 0 -10 5 -10 10 0 6 5 10 10 10 6 0 10
-4 10 -10z m-3790 -16 c0 -8 -5 -12 -10 -9 -6 4 -8 11 -5 16 9 14 15 11 15 -7z
m5236 -21 c-7 -17 -8 -17 -17 0 -12 21 -2 44 13 29 6 -6 8 -19 4 -29z m-6416
13 c0 -3 -4 -8 -10 -11 -5 -3 -10 -1 -10 4 0 6 5 11 10 11 6 0 10 -2 10 -4z
m505 -25 c-9 -16 -25 -3 -18 15 4 10 9 12 15 6 6 -6 7 -15 3 -21z m3604 11
c35 21 38 -2 3 -33 -20 -18 -32 -38 -32 -54 0 -14 -4 -25 -10 -25 -6 0 -10 27
-10 61 0 52 2 60 14 50 11 -9 19 -9 35 1z m350 -67 c-2 -62 -2 -64 -23 -53
-13 7 -16 13 -8 16 7 2 12 24 12 58 0 35 4 53 10 49 6 -4 10 -35 9 -70z
m-3689 55 c0 -5 -4 -10 -10 -10 -5 0 -10 5 -10 10 0 6 5 10 10 10 6 0 10 -4
10 -10z m2215 1 c8 -14 -30 -32 -49 -25 -23 9 -20 22 7 27 12 2 25 5 29 6 4 0
9 -3 13 -8z m695 -25 c-14 -14 -24 0 -16 21 6 15 8 15 16 3 6 -9 5 -19 0 -24z
m-792 -4 c2 -13 10 -22 22 -22 17 0 56 -69 53 -97 0 -7 3 -13 8 -13 5 0 8 -12
8 -27 -1 -23 -2 -24 -6 -6 -2 12 -10 27 -18 33 -8 6 -12 17 -9 24 7 18 -23 28
-45 16 -10 -5 -30 -25 -45 -45 -23 -30 -56 -47 -56 -29 0 16 23 44 35 44 8 0
15 5 15 10 0 6 11 15 25 20 29 11 31 19 11 46 -14 18 -16 18 -45 -16 -17 -19
-33 -43 -36 -52 -4 -10 -15 -18 -25 -18 -29 0 -35 -21 -13 -39 12 -9 26 -27
33 -39 10 -21 9 -23 -7 -20 -10 2 -18 10 -18 18 0 10 -9 14 -27 12 -21 -2 -26
2 -26 20 -1 13 -4 37 -7 54 -6 29 -2 37 50 85 77 74 117 87 123 41z m224 6
c-7 -7 -12 -8 -12 -2 0 14 12 26 19 19 2 -3 -1 -11 -7 -17z m1888 6 c0 -8 -5
-12 -10 -9 -6 4 -8 11 -5 16 9 14 15 11 15 -7z m278 -36 c-2 -14 -11 -22 -25
-23 -25 -2 -31 13 -9 21 8 3 18 17 22 32 5 20 8 23 11 10 3 -10 3 -28 1 -40z
m1168 -5 c-7 -17 -8 -17 -17 0 -12 21 -2 44 13 29 6 -6 8 -19 4 -29z m-5920
-69 c-9 -6 -16 -18 -16 -27 0 -8 -16 -24 -35 -36 -44 -25 -85 -15 -85 21 1 22
1 22 15 4 15 -19 16 -19 43 7 15 15 35 27 44 27 8 0 22 7 29 16 12 15 11 19
-9 32 -28 18 -28 30 1 41 20 8 22 5 25 -32 2 -29 -1 -45 -12 -53z m3254 86 c0
-5 -7 -10 -15 -10 -8 0 -15 5 -15 10 0 6 7 10 15 10 8 0 15 -4 15 -10z m1259
-55 c1 -17 -1 -17 -9 -5 -5 8 -9 26 -9 40 0 23 1 23 9 5 5 -11 9 -29 9 -40z
m61 30 c0 -15 -38 -41 -47 -32 -2 3 0 15 7 26 12 24 40 28 40 6z m-2090 -15
c0 -5 -4 -10 -10 -10 -5 0 -10 5 -10 10 0 6 5 10 10 10 6 0 10 -4 10 -10z
m2780 -47 c0 -44 -5 -41 -14 10 -5 27 -4 37 3 32 6 -3 11 -22 11 -42z m-5924
26 c3 -6 -1 -18 -10 -27 -15 -15 -16 -14 -16 11 0 27 13 36 26 16z m4245 -84
l-7 -50 -6 40 c-3 22 -3 56 0 75 5 33 6 33 12 10 4 -14 4 -47 1 -75z m2369 71
c0 -8 3 -21 6 -30 4 -11 1 -16 -10 -16 -11 0 -16 9 -16 30 0 17 5 30 10 30 6
0 10 -6 10 -14z m-1160 -29 c0 -32 -18 -56 -28 -39 -6 9 -12 6 -20 -13 -7 -14
-17 -23 -22 -20 -17 10 -11 34 10 45 12 6 25 22 30 36 11 29 30 23 30 -9z
m-824 -2 c7 -29 1 -41 -15 -30 -14 8 -14 55 -1 55 5 0 12 -11 16 -25z m1094
-7 c0 -5 -4 -8 -10 -8 -5 0 -10 10 -10 23 0 18 2 19 10 7 5 -8 10 -18 10 -22z
m-5635 11 c11 -1 4 -5 -15 -9 -36 -9 -50 -6 -50 12 0 6 10 8 23 4 12 -3 31 -6
42 -7z m5073 -21 c9 -15 13 -30 9 -34 -10 -10 -60 43 -52 56 10 16 24 8 43
-22z m599 8 c-3 -8 1 -13 11 -12 9 0 18 -7 20 -16 3 -13 -3 -18 -21 -18 -20 0
-26 6 -29 30 -3 21 0 30 10 30 8 0 12 -6 9 -14z m-2687 -30 c0 -16 -27 -29
-42 -20 -5 3 -1 12 9 20 23 17 33 17 33 0z m2890 -26 c0 -16 -4 -32 -10 -35
-6 -4 -10 10 -10 35 0 25 4 39 10 35 6 -3 10 -19 10 -35z m-5280 5 c0 -8 -9
-15 -20 -15 -11 0 -20 7 -20 15 0 8 9 15 20 15 11 0 20 -7 20 -15z m5900 -27
c0 -10 -7 -18 -15 -18 -17 0 -18 4 -8 38 4 18 8 20 14 10 5 -7 9 -21 9 -30z
m-6274 -20 c-1 -26 -4 -48 -8 -48 -5 0 -8 9 -8 20 0 11 -7 20 -15 20 -8 0 -15
7 -15 15 0 8 -9 15 -20 15 -11 0 -20 -7 -20 -15 0 -25 -27 -17 -32 9 -6 28 5
32 78 33 l40 0 0 -49z m5002 35 c3 -10 -14 -13 -62 -13 -73 0 -90 17 -23 23
62 6 80 3 85 -10z m506 -5 c-10 -33 -44 -53 -44 -26 0 13 31 46 43 47 5 1 5
-9 1 -21z m-1289 -33 c0 -5 -10 -11 -22 -13 -16 -2 -23 2 -23 13 0 11 7 15 23
13 12 -2 22 -7 22 -13z m855 -26 c0 -12 -5 -16 -15 -13 -8 4 -15 17 -15 31 0
22 2 24 15 13 8 -7 15 -21 15 -31z m476 1 c1 -42 -5 -47 -37 -30 -25 14 -24
25 3 50 30 28 33 26 34 -20z m-4706 20 c0 -5 -4 -10 -10 -10 -5 0 -10 5 -10
10 0 6 5 10 10 10 6 0 10 -4 10 -10z m574 -5 c3 -8 7 -18 8 -22 4 -11 -421
-13 -428 -2 -6 11 -1 11 202 9 134 -1 164 1 175 14 18 20 35 20 43 1z m-1194
-13 c0 -14 -11 -21 -26 -15 -8 3 -11 9 -8 14 7 11 34 12 34 1z m5385 -2 c-3
-5 -13 -10 -21 -10 -8 0 -14 5 -14 10 0 6 9 10 21 10 11 0 17 -4 14 -10z m695
-10 c0 -11 -4 -20 -10 -20 -5 0 -10 9 -10 20 0 11 5 20 10 20 6 0 10 -9 10
-20z m-6574 -5 c18 -14 18 -14 -10 -15 -16 0 -35 -8 -42 -17 -13 -17 -13 -17
-14 0 0 9 5 17 10 17 6 0 10 7 10 15 0 19 21 19 46 0z m84 -5 c0 -5 -4 -12
-10 -15 -5 -3 -10 -4 -10 -1 0 2 -3 12 -6 20 -5 12 -2 15 10 10 9 -3 16 -10
16 -14z m4460 -11 c0 -5 -4 -9 -10 -9 -5 0 -10 7 -10 16 0 8 5 12 10 9 6 -3
10 -10 10 -16z m-4081 -20 c7 -11 20 -19 27 -19 17 0 19 -26 2 -36 -6 -4 -17
1 -24 11 -15 20 -59 45 -80 45 -15 0 -19 12 -8 23 12 11 69 -5 83 -24z m620
12 c9 -6 -1 -10 -30 -13 -50 -5 -72 2 -43 13 26 10 56 10 73 0z m-721 -54 c-7
-15 -21 -27 -31 -27 -12 0 -20 -10 -24 -30 -4 -22 -11 -30 -22 -28 -25 6 -14
35 32 84 43 46 66 47 45 1z m-271 20 c3 -4 2 -7 -3 -8 -101 -10 -151 -4 -108
12 23 8 101 6 111 -4z m88 3 c4 -6 -7 -10 -27 -9 -27 0 -30 2 -13 9 27 12 33
12 40 0z m1949 -5 c11 -8 33 -15 48 -15 21 0 31 -6 37 -22 11 -29 -7 -42 -30
-22 -8 7 -24 14 -35 14 -26 1 -54 23 -54 44 0 20 9 20 34 1z m-1172 -7 c-17
-8 -26 -8 -34 0 -9 9 -4 12 23 11 32 0 33 -1 11 -11z m4925 6 c-3 -3 -12 -4
-19 -1 -8 3 -5 6 6 6 11 1 17 -2 13 -5z m693 -14 c0 -11 5 -20 10 -20 15 0 33
-51 22 -62 -6 -6 -12 -6 -16 1 -4 5 -14 7 -23 4 -13 -5 -15 -3 -9 13 15 35 11
49 -11 52 -35 5 -27 32 9 32 11 0 18 -7 18 -20z m-716 -15 c3 -9 0 -15 -9 -15
-8 0 -15 7 -15 15 0 8 4 15 9 15 5 0 11 -7 15 -15z m-5104 -3 c8 -4 16 -15 18
-24 2 -13 -4 -18 -23 -18 -14 0 -25 5 -25 11 0 6 -9 9 -20 6 -24 -6 -38 12
-19 24 16 10 48 11 69 1z m110 -2 c0 -5 -13 -10 -29 -10 -17 0 -33 5 -36 10
-4 6 8 10 29 10 20 0 36 -4 36 -10z m-227 -19 c5 -22 0 -31 -20 -31 -13 0 -18
31 -6 43 11 12 21 8 26 -12z m-183 -1 c0 -5 -4 -10 -10 -10 -5 0 -10 5 -10 10
0 6 5 10 10 10 6 0 10 -4 10 -10z m1600 -10 c0 -5 -12 -10 -26 -10 -14 0 -23
4 -19 10 3 6 15 10 26 10 10 0 19 -4 19 -10z m3830 -6 c0 -8 -4 -12 -10 -9 -5
3 -10 10 -10 16 0 5 5 9 10 9 6 0 10 -7 10 -16z m-3902 -23 c9 -5 2 -10 -24
-14 -41 -7 -50 -4 -39 12 7 13 45 14 63 2z m3932 -7 c0 -8 -4 -12 -10 -9 -5 3
-10 10 -10 16 0 5 5 9 10 9 6 0 10 -7 10 -16z m72 -6 c-3 -13 -13 -34 -24 -47
l-18 -24 0 24 c0 43 12 69 30 69 14 0 17 -5 12 -22z m-5317 2 c-3 -5 -10 -10
-16 -10 -5 0 -9 5 -9 10 0 6 7 10 16 10 8 0 12 -4 9 -10z m-313 -6 c13 -12 -6
-43 -32 -54 -37 -15 -74 -9 -78 13 -3 13 4 17 31 17 22 0 37 6 41 15 5 15 27
20 38 9z m1047 -19 c2 -3 -1 -11 -7 -17 -9 -9 -20 -9 -45 0 -38 14 -145 16
-165 3 -10 -6 -4 -10 19 -15 43 -8 25 -29 -22 -24 -26 2 -33 7 -31 21 2 14 -5
17 -53 17 -30 0 -55 4 -55 10 0 16 343 21 359 5z m-799 -11 c0 -10 -7 -14 -22
-12 -32 5 -35 28 -4 28 17 0 26 -5 26 -16z m1293 0 c-4 -10 -13 -14 -27 -10
-11 3 -29 6 -38 6 -10 0 -18 5 -18 10 0 6 20 10 45 10 36 0 43 -3 38 -16z
m-1663 -24 c0 -11 -4 -20 -10 -20 -5 0 -10 9 -10 20 0 11 5 20 10 20 6 0 10
-9 10 -20z m6354 12 c2 -4 -2 -16 -10 -27 -8 -10 -14 -13 -14 -6 0 7 -4 10 -9
7 -5 -3 -11 3 -14 14 -4 16 0 20 18 20 13 0 26 -3 29 -8z m-6054 -12 c8 -5 11
-12 7 -16 -4 -4 -15 0 -24 9 -18 18 -8 23 17 7z m420 0 c10 -6 11 -10 3 -10
-7 0 -13 -4 -13 -10 0 -5 18 -10 39 -10 22 0 43 -5 46 -10 4 -7 -13 -10 -52
-8 -39 2 -57 7 -55 16 1 6 -1 11 -5 10 -5 -1 -19 2 -32 6 -18 6 -21 10 -10 17
19 12 60 11 79 -1z m1133 -7 c-7 -2 -19 -2 -25 0 -7 3 -2 5 12 5 14 0 19 -2
13 -5z m3967 -3 c0 -20 -5 -25 -20 -22 -20 5 -23 9 -15 21 8 14 35 14 35 1z
m-4511 -44 l24 -26 -32 0 c-29 0 -32 2 -21 16 11 13 10 16 -8 21 -12 3 -22 12
-22 20 0 18 26 5 59 -31z m401 28 c0 -10 -7 -14 -22 -12 -32 5 -35 28 -4 28
17 0 26 -5 26 -16z m4700 -6 c0 -16 -3 -19 -11 -11 -6 6 -8 16 -5 22 11 17 16
13 16 -11z m-6520 -2 c0 -3 -4 -8 -10 -11 -5 -3 -10 -1 -10 4 0 6 5 11 10 11
6 0 10 -2 10 -4z m676 -11 c4 -8 12 -15 19 -15 7 0 15 7 19 15 7 19 26 20 26
0 0 -7 7 -18 16 -23 13 -7 2 -11 -39 -16 -35 -5 -56 -12 -54 -19 1 -7 -12 -13
-31 -15 -27 -3 -35 1 -39 17 -4 16 -13 21 -38 21 -18 0 -38 -7 -45 -15 -12
-14 -40 -21 -40 -10 0 3 8 14 17 25 13 15 30 20 70 20 42 0 51 3 47 15 -5 12
2 15 30 15 23 0 39 -5 42 -15z m644 5 c11 -7 5 -10 -22 -10 -21 0 -38 5 -38
10 0 13 40 13 60 0z m-1225 -36 c-6 -46 -9 -49 -51 -49 -40 0 -42 5 -12 25 12
8 31 25 43 37 11 13 21 23 22 23 2 0 1 -16 -2 -36z m1681 15 c12 -13 25 -18
40 -15 29 8 41 -11 20 -32 -13 -14 -19 -14 -42 -2 -14 8 -29 21 -32 30 -3 8
-13 20 -21 27 -15 11 -14 12 0 13 9 0 24 -9 35 -21z m4184 12 c0 -6 -4 -13
-10 -16 -5 -3 -10 1 -10 9 0 9 5 16 10 16 6 0 10 -4 10 -9z m-5989 -24 c-13
-13 -26 -3 -16 12 3 6 11 8 17 5 6 -4 6 -10 -1 -17z m6539 6 c10 9 11 9 8 -3
-5 -16 -40 -25 -64 -16 -9 3 -13 10 -9 16 3 5 15 6 29 0 16 -6 28 -5 36 3z
m-6205 -12 c7 -12 -12 -24 -25 -16 -11 7 -4 25 10 25 5 0 11 -4 15 -9z m150
-21 c4 -6 -6 -10 -22 -10 -22 0 -25 2 -13 10 19 12 27 12 35 0z m135 -35 c10
-12 7 -15 -15 -21 -30 -7 -40 -1 -32 21 8 19 31 19 47 0z m1601 -10 c-1 -15
-24 -12 -29 3 -3 9 2 13 12 10 10 -1 17 -7 17 -13z m4225 -42 c-1 -26 -6 -49
-11 -50 -6 -2 -10 4 -9 12 0 8 1 33 2 56 3 57 19 40 18 -18z m-6708 20 c-33
-70 -76 -101 -56 -40 6 17 16 35 22 39 14 10 39 10 34 1z m160 -4 c-2 -6 -8
-10 -13 -10 -5 0 -11 4 -13 10 -2 6 4 11 13 11 9 0 15 -5 13 -11z m1017 1 c11
-5 14 -9 7 -9 -9 -1 -11 -8 -7 -21 5 -16 2 -20 -14 -20 -12 0 -29 9 -38 20
-10 11 -23 20 -31 20 -7 0 -10 5 -7 10 7 12 62 12 90 0z m-381 -29 c-23 -24
-30 -27 -46 -18 -28 18 -22 35 15 40 17 2 38 5 45 5 8 1 1 -11 -14 -27z m461
19 c-3 -5 -15 -10 -25 -10 -10 0 -22 5 -25 10 -4 6 7 10 25 10 18 0 29 -4 25
-10z m-1138 -32 c-3 -8 -6 -5 -6 6 -1 11 2 17 5 13 3 -3 4 -12 1 -19z m953 12
c0 -5 7 -10 15 -10 16 0 38 -34 28 -44 -3 -3 -16 -6 -28 -6 -18 0 -21 4 -17
25 4 21 0 25 -19 25 -19 0 -21 2 -9 10 19 13 30 13 30 0z m-50 -10 c0 -5 -7
-10 -15 -10 -8 0 -15 5 -15 10 0 6 7 10 15 10 8 0 15 -4 15 -10z m-270 -35 c0
-8 -7 -15 -15 -15 -16 0 -20 12 -8 23 11 12 23 8 23 -8z m200 5 c0 -5 -7 -10
-16 -10 -8 0 -12 5 -9 10 3 6 10 10 16 10 5 0 9 -4 9 -10z m-790 -41 c0 -15
-5 -31 -10 -34 -17 -11 -40 15 -40 45 0 24 3 27 25 22 20 -3 25 -10 25 -33z
m1384 29 c-15 -7 -28 -7 -40 1 -16 9 -12 10 21 10 35 0 37 -2 19 -11z m-831
-35 c-7 -17 -19 -17 -26 1 -7 18 14 40 24 24 4 -6 5 -17 2 -25z m227 -7 c0 -5
-7 -17 -16 -27 -9 -10 -17 -33 -19 -51 -3 -36 -23 -55 -49 -45 -21 8 -22 63
-1 71 8 3 15 10 15 16 0 5 -7 10 -15 10 -8 0 -15 -7 -15 -15 0 -8 -9 -15 -20
-15 -19 0 -24 -10 -21 -37 1 -7 -5 -13 -14 -13 -18 0 -18 1 -2 32 27 53 75 86
96 65 15 -15 26 0 12 17 -9 11 -9 15 1 18 15 6 48 -13 48 -26z m534 13 c-7
-12 -61 -12 -69 0 -3 5 7 11 22 13 35 4 55 -1 47 -13z m-99 1 c-28 -12 -55
-12 -55 0 0 6 17 10 38 9 30 0 33 -2 17 -9z m-747 -12 c-6 -18 -28 -21 -28 -4
0 9 7 16 16 16 9 0 14 -5 12 -12z m410 -2 c-10 -7 -18 -18 -18 -25 0 -6 -7
-11 -15 -11 -8 0 -15 3 -15 7 0 13 34 43 49 43 14 -1 14 -2 -1 -14z m260 -18
c7 -7 12 -18 12 -25 0 -17 -31 -53 -46 -53 -6 0 -17 -7 -24 -15 -13 -16 -50
-21 -50 -6 0 5 7 14 15 21 22 18 18 28 -10 32 -46 6 -21 23 30 21 47 -1 49 -1
22 11 -15 7 -24 15 -21 19 12 11 59 8 72 -5z m-1408 -13 c0 -7 -9 -15 -20 -18
-16 -4 -20 -14 -20 -45 0 -23 -4 -44 -10 -47 -6 -4 -9 18 -7 58 2 62 3 64 30
65 16 0 27 -5 27 -13z m790 11 c0 -3 -4 -8 -10 -11 -5 -3 -10 -1 -10 4 0 6 5
11 10 11 6 0 10 -2 10 -4z m720 -11 c0 -8 -9 -15 -20 -15 -20 0 -26 11 -13 23
12 13 33 7 33 -8z m210 -27 c-28 -10 -62 -2 -42 11 8 4 25 6 40 3 l26 -5 -24
-9z m543 5 c-7 -2 -19 -2 -25 0 -7 3 -2 5 12 5 14 0 19 -2 13 -5z m-1180 -22
c4 -16 1 -18 -16 -12 -28 10 -34 31 -9 31 11 0 22 -8 25 -19z m558 -11 c18
-10 27 -40 12 -40 -5 0 -19 12 -32 25 -24 26 -14 33 20 15z m-1384 -26 c-9 -9
-28 6 -21 18 4 6 10 6 17 -1 6 -6 8 -13 4 -17z m465 11 c0 -38 -14 -85 -27
-85 -22 0 -27 17 -10 33 8 9 15 28 15 42 0 15 5 25 11 23 6 -2 11 -8 11 -13z
m1068 -4 c0 -4 -11 -13 -25 -19 -21 -10 -25 -9 -25 3 0 8 -6 15 -12 16 -7 1
-2 4 12 8 26 8 50 4 50 -8z m-568 -23 c-15 -15 -26 -4 -18 18 5 13 9 15 18 6
9 -9 9 -15 0 -24z m-1292 -41 c0 -27 -4 -37 -12 -34 -7 2 -13 11 -12 20 4 79
4 82 14 67 5 -8 10 -32 10 -53z m200 42 c0 -11 -4 -17 -10 -14 -5 3 -10 13
-10 21 0 8 5 14 10 14 6 0 10 -9 10 -21z m1400 11 c0 -5 -7 -10 -15 -10 -8 0
-15 5 -15 10 0 6 7 10 15 10 8 0 15 -4 15 -10z m-656 -26 c11 -30 7 -64 -9
-64 -17 0 -39 46 -31 67 7 18 33 16 40 -3z m186 7 c0 -6 -4 -13 -10 -16 -5 -3
-10 1 -10 9 0 9 5 16 10 16 6 0 10 -4 10 -9z m130 -11 c0 -5 -5 -10 -11 -10
-5 0 -7 5 -4 10 3 6 8 10 11 10 2 0 4 -4 4 -10z m5696 -57 c-12 -13 -25 13
-19 37 l7 24 9 -27 c5 -16 6 -31 3 -34z m-5576 37 c0 -5 -4 -10 -10 -10 -5 0
-10 5 -10 10 0 6 5 10 10 10 6 0 10 -4 10 -10z m-1184 -45 c-1 -5 -12 -11 -23
-13 -14 -2 -22 4 -26 19 -3 12 -4 26 -1 31 7 11 54 -24 50 -37z m684 25 c0 -5
-4 -10 -10 -10 -5 0 -10 5 -10 10 0 6 5 10 10 10 6 0 10 -4 10 -10z m650 6 c0
-11 -19 -15 -25 -6 -3 5 1 10 9 10 9 0 16 -2 16 -4z m-443 -38 c-3 -7 -5 -2
-5 12 0 14 2 19 5 13 2 -7 2 -19 0 -25z m-352 -27 c0 -40 -21 -53 -34 -20 -11
31 -2 61 18 57 11 -2 16 -14 16 -37z m452 13 c-9 -9 -28 6 -21 18 4 6 10 6 17
-1 6 -6 8 -13 4 -17z m-342 -34 c0 -21 -5 -26 -32 -28 -36 -4 -41 6 -20 38 17
29 52 22 52 -10z m-715 4 c0 -8 -4 -12 -10 -9 -5 3 -10 10 -10 16 0 5 5 9 10
9 6 0 10 -7 10 -16z m1495 -3 c7 -13 -27 -31 -59 -31 -27 0 -41 14 -31 30 8
13 82 13 90 1z m-1530 -89 c-5 -14 -8 -14 -15 -2 -5 8 -4 22 3 34 10 19 11 20
15 3 2 -10 1 -26 -3 -35z m-267 -3 c-1 -13 -7 -23 -13 -22 -13 3 -18 30 -11
50 10 24 29 1 24 -28z m1692 -19 c0 -5 -4 -10 -10 -10 -5 0 -10 5 -10 10 0 6
5 10 10 10 6 0 10 -4 10 -10z m-210 -41 c0 -5 -4 -9 -10 -9 -5 0 -10 7 -10 16
0 8 5 12 10 9 6 -3 10 -10 10 -16z m-691 -32 c1 -5 -3 -5 -9 -2 -5 3 -10 16
-9 28 0 21 1 21 9 2 5 -11 9 -24 9 -28z m-759 1 c0 -16 -3 -19 -11 -11 -6 6
-8 16 -5 22 11 17 16 13 16 -11z m279 -5 c-8 -2 -24 -18 -34 -36 -16 -26 -20
-28 -23 -14 -5 24 6 50 17 42 5 -3 12 -1 16 5 3 5 14 9 23 9 14 -1 14 -2 1 -6z
m46 -62 c-3 -6 -11 -11 -17 -11 -6 0 -6 6 2 15 14 17 26 13 15 -4z m556 -313
c4 -6 46 -14 94 -19 49 -5 91 -11 93 -14 8 -8 -46 -72 -90 -107 -67 -52 -106
-66 -200 -72 -48 -3 -95 -10 -105 -15 -10 -6 -35 -17 -55 -25 -51 -20 -71 -52
-58 -96 18 -63 17 -63 -57 -56 -38 4 -79 14 -92 23 -23 14 -25 14 -41 -7 -27
-35 -70 -20 -122 43 -24 29 -48 61 -55 72 -7 11 -25 40 -40 65 -23 38 -27 55
-26 108 0 35 3 66 7 69 3 3 21 -2 40 -11 37 -17 131 -20 206 -6 130 24 204 41
214 49 6 5 29 12 51 14 62 7 229 -3 236 -15z m3707 -774 c12 -4 22 -11 22 -16
0 -14 -73 -5 -78 10 -4 13 19 16 56 6z m117 -44 c4 -6 -7 -10 -24 -10 -17 0
-31 5 -31 10 0 6 11 10 24 10 14 0 28 -4 31 -10z m82 -36 c-3 -3 -12 -4 -19
-1 -8 3 -5 6 6 6 11 1 17 -2 13 -5z"/>
<path d="M6368 8243 c6 -2 18 -2 25 0 6 3 1 5 -13 5 -14 0 -19 -2 -12 -5z"/>
<path d="M3707 6743 c-16 -26 -17 -122 -2 -166 13 -40 14 -57 4 -108 -15 -75
-3 -95 36 -59 14 13 25 28 25 33 0 6 6 18 14 26 20 24 30 210 12 217 -8 3 -20
19 -26 35 -9 20 -19 29 -36 29 -12 0 -25 -3 -27 -7z"/>
<path d="M3814 6725 c-4 -15 0 -39 10 -59 23 -49 21 -168 -5 -252 -22 -71 -33
-92 -86 -163 -18 -24 -33 -52 -33 -62 0 -11 -32 -55 -71 -99 -66 -76 -81 -108
-52 -117 6 -2 18 7 25 21 29 55 141 157 204 186 59 27 62 30 69 71 4 28 21 63
45 94 65 84 75 141 41 218 -10 23 -20 47 -22 52 -2 6 -20 38 -39 73 -26 47
-40 62 -57 62 -16 0 -25 -8 -29 -25z"/>
<path d="M3922 5820 c-30 -41 -30 -109 1 -137 12 -11 32 -24 44 -27 31 -10 78
17 93 53 10 26 10 37 -5 73 -24 60 -32 68 -74 68 -30 0 -42 -6 -59 -30z"/>
<path d="M4186 5615 c-3 -9 0 -15 9 -15 8 0 15 7 15 15 0 8 -4 15 -9 15 -5 0
-11 -7 -15 -15z"/>
<path d="M2232 6708 c-14 -17 -62 -127 -62 -142 0 -6 7 -22 17 -35 15 -23 17
-23 30 -6 7 11 13 31 13 46 0 15 12 50 26 77 14 28 23 55 19 61 -8 15 -30 14
-43 -1z"/>
<path d="M1967 6623 c-4 -3 -7 -20 -7 -37 1 -29 1 -30 15 -12 24 31 16 74 -8
49z"/>
<path d="M1924 6463 c-5 -8 -27 -19 -49 -22 -28 -5 -39 -12 -36 -22 2 -8 10
-39 16 -69 7 -30 16 -63 20 -72 10 -25 70 -68 94 -68 27 0 27 16 -1 31 l-21
11 23 18 c20 15 22 23 18 71 -6 66 -48 147 -64 122z"/>
<path d="M1790 6395 c-8 -9 -8 -15 -2 -15 12 0 26 19 19 26 -2 2 -10 -2 -17
-11z"/>
<path d="M1755 6339 c-8 -23 -1 -34 14 -24 13 8 15 45 2 45 -5 0 -13 -9 -16
-21z"/>
<path d="M5005 5628 c-33 -5 -72 -16 -87 -24 -14 -8 -33 -14 -42 -14 -23 0
-181 -77 -196 -95 -7 -8 -23 -15 -35 -15 -13 0 -61 -22 -108 -50 -47 -27 -90
-50 -96 -50 -6 0 -11 -5 -11 -10 0 -6 -11 -15 -24 -19 -15 -6 -25 -20 -29 -40
-10 -48 1 -64 36 -57 28 6 29 5 15 -11 -9 -10 -17 -24 -20 -32 -3 -10 -11 -7
-31 12 -29 30 -38 33 -35 15 2 -7 -3 -12 -10 -10 -7 1 -32 -13 -56 -33 -24
-19 -49 -35 -57 -35 -8 0 -22 -9 -32 -20 -19 -23 -22 -34 -6 -25 6 4 41 4 77
-1 l67 -8 -55 -8 c-30 -4 -76 -5 -102 -2 -30 4 -48 2 -48 -4 0 -6 5 -12 12
-14 19 -7 -1 -28 -27 -28 -13 0 -36 -5 -50 -10 -42 -16 -29 -48 35 -87 30 -18
78 -53 107 -78 57 -50 78 -55 116 -25 14 11 30 20 35 20 5 0 17 11 26 25 9 13
37 36 63 51 27 15 58 40 71 56 17 20 32 28 57 28 18 0 38 7 45 15 7 8 19 15
26 15 8 0 19 11 24 24 7 18 14 22 34 19 29 -6 36 13 9 20 -17 4 -17 4 1 12 10
5 21 4 25 -3 10 -16 63 -1 68 19 4 13 14 19 34 19 17 0 32 6 35 15 4 9 19 15
38 15 19 0 38 8 49 20 14 17 25 19 52 14 27 -5 36 -3 41 10 3 9 14 16 24 16 9
0 28 8 41 19 13 10 34 21 45 25 14 4 24 18 28 38 8 41 8 70 -1 65 -5 -3 -9 7
-10 21 -1 15 -6 45 -11 67 -8 33 -10 35 -11 13 0 -16 -5 -28 -11 -28 -6 0 -10
28 -10 63 0 49 -4 68 -18 80 -20 18 -19 18 -107 5z m115 -204 c0 -29 -61 -103
-85 -104 -6 0 -5 4 1 8 6 4 15 17 19 30 4 15 12 21 21 18 10 -4 14 3 14 23 0
15 3 31 7 34 11 12 23 7 23 -9z m-110 -134 c0 -5 -12 -10 -27 -10 -22 0 -25 2
-13 10 20 13 40 13 40 0z m20 -20 c0 -5 -5 -10 -11 -10 -5 0 -7 5 -4 10 3 6 8
10 11 10 2 0 4 -4 4 -10z m-90 -20 c0 -5 -14 -10 -31 -10 -17 0 -28 4 -24 10
3 6 17 10 31 10 13 0 24 -4 24 -10z m-436 -26 c26 -10 18 -24 -14 -24 -29 0
-38 9 -23 23 8 9 17 9 37 1z m344 -3 c10 -6 8 -10 -9 -14 -26 -7 -42 0 -34 14
8 11 26 11 43 0z m-98 -41 c0 -10 -12 -12 -89 -12 -29 0 -57 -8 -80 -23 -20
-12 -50 -22 -66 -22 -16 0 -31 -6 -33 -12 -2 -6 -25 -11 -53 -11 -34 0 -48 4
-43 11 3 6 17 8 31 4 16 -4 36 1 56 14 18 11 41 19 52 18 14 -1 21 5 23 21 3
21 7 22 103 22 58 0 99 -4 99 -10z m-300 -8 c0 -13 -12 -22 -22 -16 -10 6 -1
24 13 24 5 0 9 -4 9 -8z m210 -37 c0 -8 -7 -15 -15 -15 -8 0 -15 7 -15 15 0 8
7 15 15 15 8 0 15 -7 15 -15z m-70 -71 c0 -8 -7 -14 -15 -14 -17 0 -18 2 -9
24 7 18 24 12 24 -10z"/>
<path d="M6020 5485 c0 -15 126 -105 147 -105 7 0 13 9 13 20 0 14 -7 20 -22
20 -22 0 -65 35 -66 54 -1 25 -72 37 -72 11z"/>
<path d="M6190 5381 c0 -9 30 -24 36 -18 2 1 -6 8 -16 15 -11 7 -20 8 -20 3z"/>
<path d="M5745 5171 c-3 -6 -24 -15 -46 -21 -50 -14 -57 -30 -30 -73 36 -58
27 -85 -57 -175 l-33 -35 -133 7 c-127 7 -286 31 -372 57 -34 10 -45 10 -72
-4 -18 -8 -46 -19 -64 -22 -18 -4 -42 -14 -53 -21 -11 -8 -26 -14 -35 -14 -8
-1 -33 -9 -55 -20 -22 -11 -49 -20 -60 -20 -11 0 -29 -7 -39 -15 -11 -8 -29
-15 -41 -15 -11 0 -29 -6 -40 -14 -11 -7 -35 -17 -53 -21 -22 -4 -36 -15 -43
-32 -12 -32 -12 -33 6 -33 15 0 103 -57 152 -100 45 -38 85 -65 121 -79 27
-12 40 -12 75 -1 23 8 47 17 53 22 17 13 152 38 202 38 60 0 148 -24 173 -46
24 -22 24 -41 0 -110 -29 -81 -25 -85 73 -79 116 8 229 26 246 40 23 17 69 35
92 35 11 0 37 -13 57 -29 30 -24 52 -31 122 -40 46 -6 96 -13 112 -17 22 -5
27 -3 27 12 0 32 -70 162 -97 179 -71 47 -143 137 -143 179 0 12 14 35 31 52
52 49 72 100 71 181 0 39 -6 82 -13 95 -7 13 -15 50 -18 83 l-6 60 -52 3 c-28
2 -54 -2 -58 -7z"/>
<path d="M8035 5100 c3 -5 8 -10 11 -10 2 0 4 5 4 10 0 6 -5 10 -11 10 -5 0
-7 -4 -4 -10z"/>
<path d="M4785 4966 c-22 -8 -79 -16 -126 -18 -83 -4 -92 -7 -210 -66 -155
-78 -175 -92 -161 -118 6 -11 20 -28 32 -39 17 -16 24 -17 40 -7 11 7 28 12
39 12 11 0 26 6 33 14 8 7 25 17 38 20 25 7 48 17 131 55 25 12 52 21 60 21 8
0 23 7 33 15 11 8 29 15 41 15 12 0 30 7 41 15 10 8 25 15 32 15 26 0 123 52
119 63 -5 17 -96 19 -142 3z"/>
<path d="M3828 4938 c-31 -34 -36 -53 -12 -44 9 3 19 6 23 6 12 0 61 48 61 60
0 21 -46 7 -72 -22z"/>
<path d="M3932 4923 c-18 -7 -54 -82 -48 -99 3 -8 2 -13 -3 -10 -5 3 -14 -1
-21 -9 -11 -13 -8 -15 17 -15 16 0 52 -7 79 -15 97 -29 114 -12 62 67 -19 29
-38 61 -41 71 -6 17 -20 20 -45 10z"/>
<path d="M3760 4865 c-7 -8 -19 -15 -26 -15 -8 0 -14 -6 -14 -14 0 -7 -9 -16
-21 -19 -12 -3 -19 -11 -17 -18 7 -21 27 -22 35 -2 4 10 20 30 37 45 16 15 27
30 24 33 -3 3 -11 -1 -18 -10z"/>
<path d="M3660 4770 c0 -5 5 -10 11 -10 5 0 7 5 4 10 -3 6 -8 10 -11 10 -2 0
-4 -4 -4 -10z"/>
<path d="M4013 4724 c-54 -23 -51 -36 9 -28 62 8 62 8 55 29 -8 18 -21 18 -64
-1z"/>
<path d="M4415 4708 c-16 -6 -36 -12 -44 -14 -8 -3 -10 -10 -6 -22 17 -40 17
-63 0 -76 -31 -22 -7 -65 71 -123 38 -29 76 -60 85 -68 9 -8 18 -15 22 -15 3
0 17 -10 30 -23 14 -12 58 -41 98 -64 l74 -42 55 14 c30 8 69 17 85 21 27 6
28 7 10 14 -11 5 -43 9 -71 9 -94 2 -239 67 -313 142 -75 75 -69 110 15 84 26
-8 51 -12 56 -9 19 12 6 51 -32 95 -22 26 -40 52 -40 58 0 12 -33 31 -52 30
-7 -1 -26 -6 -43 -11z"/>
<path d="M4086 4665 c-24 -37 -20 -45 23 -45 73 0 93 23 46 54 -34 22 -50 20
-69 -9z"/>
<path d="M4176 4595 c-17 -13 -18 -18 -6 -39 12 -24 188 -194 261 -253 19 -15
47 -40 63 -56 32 -30 66 -36 66 -11 0 17 -44 64 -59 64 -4 0 -19 10 -33 23
-13 12 -52 46 -86 75 -34 29 -79 81 -101 115 -41 63 -70 97 -80 97 -3 0 -15
-7 -25 -15z"/>
<path d="M3710 4465 c-19 -7 -36 -17 -37 -22 -6 -18 39 -22 136 -13 57 5 127
5 175 -1 45 -5 91 -9 104 -9 32 0 28 28 -5 35 -16 4 -39 9 -53 12 -48 12 -135
12 -158 1 -17 -9 -25 -9 -34 0 -15 15 -82 13 -128 -3z"/>
<path d="M3531 4437 c-56 -28 -62 -44 -19 -55 43 -11 60 -6 93 28 49 51 4 67
-74 27z"/>
<path d="M4120 4411 c0 -11 48 -24 60 -16 21 13 8 25 -25 25 -19 0 -35 -4 -35
-9z"/>
<path d="M3360 4373 c-54 -37 -48 -53 21 -53 53 0 72 17 52 49 -14 23 -44 24
-73 4z"/>
<path d="M4228 4373 c7 -3 16 -2 19 1 4 3 -2 6 -13 5 -11 0 -14 -3 -6 -6z"/>
<path d="M3230 4300 c0 -5 5 -10 10 -10 6 0 10 5 10 10 0 6 -4 10 -10 10 -5 0
-10 -4 -10 -10z"/>
<path d="M5365 4293 c-56 -6 -65 -16 -53 -61 6 -20 14 -41 18 -47 4 -5 13 -26
18 -45 14 -47 35 -102 45 -117 5 -8 31 -13 65 -13 31 0 120 -7 197 -15 184
-19 245 -19 273 1 24 16 29 43 11 61 -8 8 -5 30 11 82 16 54 28 74 47 83 34
17 51 44 37 58 -5 5 -59 13 -118 17 -118 7 -139 -1 -112 -42 11 -17 10 -27 -6
-62 -11 -27 -25 -43 -36 -43 -9 0 -32 -16 -51 -35 -39 -40 -47 -42 -81 -18
-13 10 -42 20 -63 23 -36 5 -39 8 -57 60 -16 48 -17 57 -4 71 8 9 12 24 8 33
-6 16 -48 19 -149 9z"/>
<path d="M5130 4280 c-25 -4 -85 -13 -135 -20 -180 -23 -180 -23 -183 -46 -2
-16 7 -28 35 -45 32 -20 49 -23 110 -21 67 3 73 1 88 -22 12 -19 15 -36 10
-66 -5 -32 -3 -41 9 -46 24 -9 66 4 72 24 3 9 9 24 14 32 62 102 82 177 55
204 -9 9 -19 15 -23 15 -4 -1 -27 -5 -52 -9z"/>
<path d="M4281 4235 c-18 -8 -47 -15 -65 -15 -17 0 -44 -7 -60 -15 -15 -8 -34
-15 -41 -15 -14 0 -159 -46 -190 -60 -11 -5 -31 -12 -45 -16 -14 -3 -70 -28
-126 -55 -56 -27 -109 -49 -118 -49 -10 0 -26 -5 -36 -10 -11 -6 -42 -15 -70
-20 -34 -6 -73 -25 -118 -57 -37 -26 -83 -57 -102 -70 -19 -12 -40 -27 -47
-33 -7 -5 -15 -10 -18 -10 -15 0 -115 -52 -115 -61 0 -5 12 -12 27 -15 21 -6
30 -2 41 14 8 12 24 22 36 22 11 0 30 7 40 15 11 8 32 15 46 15 15 0 49 16 76
35 27 19 55 35 62 35 7 0 45 14 85 31 40 17 88 35 107 41 19 5 62 22 95 38 33
16 98 45 145 65 47 20 101 44 120 52 19 9 49 21 65 28 17 7 50 22 75 33 25 12
62 24 83 27 20 4 39 11 42 15 3 5 24 11 48 15 52 9 63 15 46 26 -20 12 -49 10
-88 -6z"/>
<path d="M8178 4233 c7 -3 16 -2 19 1 4 3 -2 6 -13 5 -11 0 -14 -3 -6 -6z"/>
<path d="M3110 4200 c0 -5 7 -10 15 -10 8 0 15 5 15 10 0 6 -7 10 -15 10 -8 0
-15 -4 -15 -10z"/>
<path d="M4587 4189 c-23 -14 -21 -26 11 -64 15 -18 40 -51 55 -74 l28 -41 72
0 c73 0 111 12 92 28 -6 4 -41 29 -80 54 -38 26 -80 56 -92 67 -31 29 -65 41
-86 30z"/>
<path d="M1070 4170 c0 -5 5 -10 10 -10 6 0 10 5 10 10 0 6 -4 10 -10 10 -5 0
-10 -4 -10 -10z"/>
<path d="M8390 4100 c0 -5 4 -10 9 -10 6 0 13 5 16 10 3 6 -1 10 -9 10 -9 0
-16 -4 -16 -10z"/>
<path d="M4704 3965 c-10 -8 -34 -15 -52 -15 -41 0 -50 -21 -29 -65 21 -43 72
-56 123 -32 31 15 36 15 66 -2 46 -26 94 -33 108 -17 13 17 -19 123 -41 137
-24 15 -153 11 -175 -6z"/>
<path d="M5371 3940 c-17 -49 -14 -130 7 -164 14 -23 31 -32 87 -46 45 -12 74
-15 80 -9 6 6 10 42 10 81 0 86 12 95 61 47 25 -24 34 -42 34 -65 0 -18 -4
-36 -10 -39 -5 -3 -10 -16 -10 -29 0 -24 34 -46 71 -46 11 0 32 -6 47 -14 15
-8 43 -17 62 -21 30 -5 39 -2 60 20 23 24 25 34 25 118 0 82 -2 92 -20 102
-11 5 -43 23 -70 39 -53 31 -101 39 -321 52 l-101 6 -12 -32z"/>
<path d="M4452 3925 c-38 -44 -23 -64 16 -22 22 23 29 47 14 47 -5 0 -18 -11
-30 -25z"/>
<path d="M1170 3815 c0 -9 5 -15 11 -13 6 2 11 8 11 13 0 5 -5 11 -11 13 -6 2
-11 -4 -11 -13z"/>
<path d="M4333 3814 c-36 -15 -68 -57 -58 -74 3 -5 21 -10 39 -10 36 0 64 29
69 71 3 28 -10 31 -50 13z"/>
<path d="M4836 3769 c-2 -8 -6 -47 -9 -87 l-4 -72 33 -21 c46 -28 88 -23 92
13 2 19 -3 30 -18 38 l-22 12 21 14 c24 17 28 61 9 87 -17 22 -96 35 -102 16z"/>
<path d="M1302 3731 c2 -7 7 -12 11 -12 12 1 9 15 -3 20 -7 2 -11 -2 -8 -8z"/>
<path d="M4140 3694 c-11 -12 -11 -17 1 -28 24 -24 56 -28 73 -11 22 23 20 34
-10 45 -35 14 -49 12 -64 -6z"/>
<path d="M3052 3689 c2 -6 8 -10 13 -10 5 0 11 4 13 10 2 6 -4 11 -13 11 -9 0
-15 -5 -13 -11z"/>
<path d="M3986 3644 c-15 -14 -26 -28 -23 -31 3 -3 26 -8 50 -10 40 -5 46 -3
65 24 25 36 21 43 -27 43 -24 -1 -46 -9 -65 -26z"/>
<path d="M2507 3624 c-9 -10 2 -24 19 -24 8 0 14 7 14 15 0 15 -21 21 -33 9z"/>
<path d="M3860 3593 c-8 -3 -64 -25 -125 -48 -60 -24 -124 -46 -141 -50 -40
-8 -72 -41 -57 -56 8 -8 24 -7 59 5 26 9 55 16 64 16 10 0 47 14 83 30 37 17
76 30 87 30 26 0 85 53 76 68 -8 13 -21 14 -46 5z"/>
<path d="M1260 3581 c0 -5 5 -13 10 -16 6 -3 10 -2 10 4 0 5 -4 13 -10 16 -5
3 -10 2 -10 -4z"/>
<path d="M4480 3585 c0 -18 45 -45 75 -45 51 0 43 17 -17 35 -58 17 -58 17
-58 10z"/>
<path d="M4258 3540 c-38 -21 -50 -40 -24 -40 7 0 25 -9 39 -20 14 -11 34 -20
45 -20 11 0 25 -7 32 -15 7 -8 23 -15 35 -15 12 0 34 -9 48 -20 14 -11 32 -20
40 -20 8 0 20 -7 27 -15 7 -8 21 -15 31 -15 11 0 36 -9 56 -20 21 -11 43 -20
49 -20 6 0 17 -7 24 -15 7 -8 23 -15 37 -15 13 0 26 -7 29 -15 4 -8 12 -15 20
-15 13 0 97 -42 118 -59 6 -5 22 -11 36 -13 38 -5 36 23 -5 89 -60 94 -118
148 -183 168 -123 39 -205 67 -221 75 -28 14 -104 32 -151 36 -32 3 -56 -2
-82 -16z"/>
<path d="M8200 3536 c0 -15 18 -31 26 -23 7 7 -7 37 -17 37 -5 0 -9 -6 -9 -14z"/>
<path d="M4901 3521 c-10 -6 -9 -10 3 -14 8 -3 18 -2 21 3 8 13 -9 20 -24 11z"/>
<path d="M8370 3509 c0 -5 5 -7 10 -4 6 3 10 8 10 11 0 2 -4 4 -10 4 -5 0 -10
-5 -10 -11z"/>
<path d="M4085 3481 c-22 -11 -48 -22 -57 -25 -31 -9 -20 -21 40 -41 31 -10
64 -25 73 -32 8 -7 21 -13 27 -13 7 0 35 -16 62 -35 28 -19 72 -51 100 -70 27
-19 54 -35 59 -35 6 0 14 -6 18 -14 4 -8 33 -33 63 -57 61 -47 103 -89 97 -95
-4 -4 -66 25 -77 36 -15 15 -71 50 -80 50 -10 0 -77 45 -148 98 -37 28 -84 55
-124 72 -16 7 -28 16 -28 21 0 5 -8 9 -19 9 -10 0 -30 9 -44 20 -14 11 -32 20
-40 20 -8 0 -17 7 -21 15 -8 21 -33 19 -67 -6 -39 -27 -38 -58 1 -65 16 -4 35
-13 41 -20 6 -8 16 -14 21 -14 13 0 178 -131 233 -185 23 -22 54 -59 68 -82
29 -47 68 -64 99 -44 23 14 35 -7 19 -37 -5 -10 -13 -50 -17 -88 -3 -38 -12
-79 -20 -91 -7 -12 -16 -41 -20 -65 -3 -24 -12 -56 -19 -73 -8 -16 -16 -37
-20 -45 -19 -48 -70 -110 -90 -110 -15 0 -46 -24 -121 -95 -46 -44 -64 -68
-64 -87 0 -14 -7 -31 -15 -38 -8 -7 -15 -22 -15 -34 0 -33 -96 -116 -135 -116
-9 0 -29 7 -46 15 -26 14 -30 14 -35 0 -4 -8 1 -30 10 -49 9 -19 16 -40 16
-48 0 -8 11 -25 24 -37 21 -20 35 -23 108 -23 114 -1 198 31 198 74 0 20 -9
26 -50 31 -20 3 -26 10 -28 37 -3 25 3 39 27 64 17 17 35 45 41 61 10 30 107
115 130 115 7 0 10 13 9 33 -4 38 28 97 52 97 12 0 16 6 12 19 -3 13 2 23 16
30 12 7 21 22 21 35 0 13 7 29 15 36 9 7 15 29 15 51 0 27 6 45 20 56 14 13
20 30 20 61 0 39 2 43 20 37 12 -4 26 0 36 9 8 9 27 16 42 16 15 0 37 3 50 6
26 7 31 -16 8 -39 -8 -8 -18 -38 -22 -66 -3 -28 -13 -56 -20 -62 -8 -6 -14
-27 -14 -46 0 -21 -6 -36 -15 -39 -8 -4 -15 -16 -15 -29 0 -12 -9 -34 -20 -48
-11 -14 -20 -39 -20 -55 0 -16 -7 -35 -15 -42 -8 -7 -15 -23 -15 -35 0 -12 -7
-28 -15 -35 -8 -6 -17 -22 -21 -33 -11 -39 -98 -210 -121 -238 -6 -8 -14 -25
-18 -39 -4 -13 -14 -30 -21 -38 -8 -7 -14 -21 -14 -30 0 -15 -27 -51 -84 -114
-9 -10 -16 -20 -16 -23 0 -10 -95 -95 -106 -95 -6 0 -17 -6 -23 -14 -8 -10
-50 -15 -159 -18 -175 -6 -287 4 -313 28 -17 15 -19 15 -25 0 -4 -12 -19 -16
-53 -16 -25 0 -52 4 -60 9 -7 5 -25 4 -41 -2 -22 -8 -33 -7 -54 6 -24 16 -28
16 -52 1 -22 -15 -31 -16 -59 -5 -28 10 -40 9 -62 -2 -15 -7 -54 -14 -85 -16
-46 -2 -58 1 -58 13 0 22 -19 30 -36 15 -11 -9 -20 -9 -40 0 -14 6 -52 11 -85
11 -74 0 -115 17 -162 65 -21 21 -41 34 -47 30 -19 -12 -40 -71 -40 -112 0
-82 67 -130 230 -162 178 -37 234 -43 320 -37 216 14 579 18 646 6 38 -7 117
-15 176 -17 90 -4 117 -1 165 16 88 30 138 57 165 88 13 15 44 46 68 67 47 41
132 152 151 196 6 14 17 32 24 40 36 39 135 261 190 422 58 172 65 192 79 223
18 40 31 82 101 330 33 118 46 184 43 221 -3 33 -7 40 -28 42 -14 2 -29 10
-33 18 -4 8 -18 14 -31 14 -13 0 -29 7 -36 15 -7 8 -18 15 -25 15 -7 0 -24 9
-38 20 -14 11 -35 20 -46 20 -12 0 -24 7 -27 15 -4 8 -17 15 -30 15 -22 0
-109 41 -128 61 -6 5 -20 9 -32 9 -13 0 -25 4 -28 9 -4 5 -24 12 -45 16 -22 4
-45 13 -52 21 -6 8 -22 14 -34 14 -25 0 -111 35 -135 55 -28 23 -55 25 -95 6z
m-918 -1857 c-3 -3 -12 -4 -19 -1 -8 3 -5 6 6 6 11 1 17 -2 13 -5z"/>
<path d="M4875 3460 c-10 -16 4 -30 30 -30 34 0 41 18 10 30 -32 12 -32 12
-40 0z"/>
<path d="M3420 3442 c0 -5 6 -16 13 -27 16 -20 33 -5 23 20 -6 16 -36 21 -36
7z"/>
<path d="M3227 3423 c-13 -12 -7 -21 22 -31 22 -8 34 -7 48 4 16 12 16 15 3
24 -17 11 -63 13 -73 3z"/>
<path d="M3015 3390 c-3 -6 1 -13 10 -16 19 -8 30 0 20 15 -8 14 -22 14 -30 1z"/>
<path d="M3130 3391 c0 -6 5 -13 10 -16 6 -3 10 1 10 9 0 9 -4 16 -10 16 -5 0
-10 -4 -10 -9z"/>
<path d="M3808 3289 c-44 -38 -62 -69 -39 -69 15 0 41 -30 41 -46 0 -8 -7 -14
-15 -14 -20 0 -20 -56 0 -90 8 -14 15 -41 15 -60 1 -65 1 -65 192 -63 95 1
191 5 214 8 37 5 41 8 36 30 -2 13 -25 41 -51 62 -25 20 -53 44 -62 52 -46 44
-88 79 -127 105 -23 16 -53 39 -66 51 -13 12 -31 25 -41 29 -9 3 -19 15 -22
26 -8 29 -22 25 -75 -21z"/>
<path d="M1748 3273 c12 -2 32 -2 45 0 12 2 2 4 -23 4 -25 0 -35 -2 -22 -4z"/>
<path d="M3035 3240 c-4 -6 27 -10 84 -10 54 0 91 4 91 10 0 6 -35 10 -84 10
-47 0 -88 -4 -91 -10z"/>
<path d="M3280 3240 c0 -5 16 -10 35 -10 37 0 55 -20 55 -62 0 -13 9 -36 20
-53 16 -24 19 -40 14 -76 -4 -32 -1 -64 11 -99 16 -48 19 -51 44 -46 55 13
168 18 174 9 3 -5 -11 -34 -31 -64 -52 -76 -102 -184 -122 -259 -21 -83 -22
-90 -16 -114 7 -28 42 -44 59 -27 7 7 15 42 18 79 6 70 17 107 53 182 27 57
91 152 133 198 27 29 33 44 33 79 0 40 -7 62 -51 159 -11 23 -19 48 -19 57 0
21 -18 25 -130 29 l-95 3 -5 -55 c-3 -30 -9 -54 -15 -53 -5 1 -14 29 -19 62
-7 48 -13 60 -30 65 -35 9 -116 7 -116 -4z"/>
<path d="M2458 3068 c-11 -16 -25 -23 -49 -23 -34 0 -34 -1 -31 -43 5 -61 -15
-213 -34 -258 -10 -24 -14 -53 -11 -78 5 -36 2 -43 -30 -71 -44 -38 -37 -55
22 -55 47 0 64 -13 46 -34 -13 -16 -41 -103 -41 -129 0 -15 6 -17 49 -11 44 6
50 4 56 -15 4 -15 15 -21 36 -21 33 0 39 -19 9 -27 -28 -7 -24 -32 9 -71 l29
-34 41 26 c45 29 52 55 25 95 -13 17 -24 22 -46 19 -17 -3 -27 0 -25 6 2 6 13
12 25 14 26 4 34 30 30 98 -4 60 -21 67 -75 30 -21 -14 -41 -26 -45 -26 -18 0
-6 60 21 101 36 54 51 133 27 142 -9 4 -38 -6 -66 -23 -61 -36 -81 -38 -54 -7
19 22 34 51 74 142 12 28 28 63 36 78 8 16 14 36 14 45 1 9 7 35 15 56 13 36
12 42 -6 68 -25 34 -32 35 -51 6z"/>
<path d="M8307 2604 c-14 -14 -7 -35 11 -32 9 2 17 10 17 17 0 16 -18 25 -28
15z"/>
<path d="M1945 2580 c3 -5 11 -10 16 -10 6 0 7 5 4 10 -3 6 -11 10 -16 10 -6
0 -7 -4 -4 -10z"/>
<path d="M2056 2282 c-2 -4 -1 -14 4 -22 7 -11 12 -12 21 -3 6 6 8 16 5 22 -8
13 -23 14 -30 3z"/>
<path d="M1857 2163 c-12 -11 -7 -33 7 -33 12 0 26 20 26 36 0 7 -26 5 -33 -3z"/>
<path d="M2370 1930 c0 -5 5 -10 11 -10 5 0 7 5 4 10 -3 6 -8 10 -11 10 -2 0
-4 -4 -4 -10z"/>
<path d="M3860 1925 c-15 -18 -7 -85 12 -96 18 -11 29 0 19 19 -5 9 -6 31 -4
48 6 36 -9 51 -27 29z"/>
<path d="M2035 1905 c-28 -27 -31 -40 -12 -48 7 -3 22 12 35 34 25 44 13 51
-23 14z"/>
<path d="M3070 1870 c0 -10 9 -24 19 -30 43 -23 55 -4 19 30 -27 25 -38 25
-38 0z"/>
<path d="M3177 1859 c-24 -14 -12 -29 24 -29 22 0 29 5 29 20 0 22 -24 26 -53
9z"/>
<path d="M3280 1855 c-17 -21 -9 -26 29 -19 25 5 29 9 20 20 -15 18 -34 18
-49 -1z"/>
<path d="M3352 1838 c6 -18 28 -21 28 -4 0 9 -7 16 -16 16 -9 0 -14 -5 -12
-12z"/>
<path d="M8155 1810 c-3 -6 5 -14 18 -19 14 -6 27 -16 30 -23 4 -9 6 -10 6 -1
1 14 -29 53 -41 53 -4 0 -10 -5 -13 -10z"/>
<path d="M1855 1781 c-8 -26 1 -42 21 -34 17 6 15 44 -3 50 -6 2 -14 -5 -18
-16z"/>
<path d="M2004 1776 c-8 -22 1 -30 21 -19 15 9 15 11 1 22 -13 11 -17 10 -22
-3z"/>
<path d="M2245 1746 c-11 -8 -17 -18 -13 -21 11 -11 60 4 56 17 -6 18 -22 20
-43 4z"/>
<path d="M7954 1675 c-7 -17 4 -37 17 -30 12 8 12 45 -1 45 -6 0 -13 -7 -16
-15z"/>
<path d="M7895 1661 c-3 -5 -1 -12 5 -16 5 -3 10 1 10 9 0 18 -6 21 -15 7z"/>
<path d="M7277 1564 c-3 -3 -3 -12 0 -20 4 -11 9 -12 19 -3 8 6 14 15 14 20 0
10 -24 12 -33 3z"/>
<path d="M7022 1528 c5 -15 28 -18 29 -3 0 6 -7 12 -17 13 -10 3 -15 -1 -12
-10z"/>
<path d="M6888 1523 c6 -2 18 -2 25 0 6 3 1 5 -13 5 -14 0 -19 -2 -12 -5z"/>
<path d="M7233 1445 c-3 -9 -3 -18 0 -22 10 -10 37 6 37 22 0 20 -29 20 -37 0z"/>
<path d="M6380 1399 c0 -24 23 -21 28 4 2 10 -3 17 -12 17 -10 0 -16 -9 -16
-21z"/>
<path d="M4981 1364 c0 -11 3 -14 6 -6 3 7 2 16 -1 19 -3 4 -6 -2 -5 -13z"/>
<path d="M2134 1296 c-8 -22 3 -33 18 -18 9 9 9 15 0 24 -9 9 -13 7 -18 -6z"/>
<path d="M4810 1276 c0 -8 5 -18 10 -21 6 -3 10 3 10 14 0 12 -4 21 -10 21 -5
0 -10 -6 -10 -14z"/>
<path d="M7170 1264 c0 -31 23 -28 28 4 2 15 -2 22 -12 22 -11 0 -16 -9 -16
-26z"/>
<path d="M7790 1244 c0 -17 22 -14 28 4 2 7 -3 12 -12 12 -9 0 -16 -7 -16 -16z"/>
<path d="M7887 1243 c-12 -12 -7 -33 8 -33 17 0 19 9 7 28 -5 7 -11 9 -15 5z"/>
<path d="M4845 1230 c-3 -5 -1 -10 4 -10 6 0 11 5 11 10 0 6 -2 10 -4 10 -3 0
-8 -4 -11 -10z"/>
<path d="M4745 1149 c-10 -15 3 -25 16 -12 7 7 7 13 1 17 -6 3 -14 1 -17 -5z"/>
<path d="M2207 1133 c-11 -19 -17 -67 -12 -84 8 -24 35 -25 35 -1 0 10 7 28
17 41 15 23 15 25 -2 37 -21 16 -32 17 -38 7z"/>
<path d="M4892 1123 c-10 -4 -9 -8 5 -19 25 -19 32 -17 26 6 -5 21 -9 22 -31
13z"/>
<path d="M4760 1078 c0 -21 13 -34 47 -52 31 -15 32 -15 26 1 -6 19 -52 62
-65 63 -5 0 -8 -6 -8 -12z"/>
<path d="M4596 1055 c-3 -9 0 -15 9 -15 8 0 15 7 15 15 0 8 -4 15 -9 15 -5 0
-11 -7 -15 -15z"/>
<path d="M7716 991 c-8 -13 4 -42 15 -35 12 7 12 44 0 44 -6 0 -12 -4 -15 -9z"/>
<path d="M5140 940 c0 -18 8 -37 20 -47 11 -10 20 -28 20 -40 0 -13 4 -23 9
-23 19 0 23 21 8 43 -8 12 -19 39 -26 60 -15 45 -31 48 -31 7z"/>
<path d="M2435 870 c3 -5 8 -10 11 -10 2 0 4 5 4 10 0 6 -5 10 -11 10 -5 0 -7
-4 -4 -10z"/>
<path d="M4495 850 c-8 -13 6 -41 19 -37 17 6 19 34 2 40 -9 4 -18 2 -21 -3z"/>
<path d="M2275 797 c-4 -10 -5 -21 -1 -24 10 -10 18 4 13 24 -4 17 -4 17 -12
0z"/>
<path d="M4650 780 c-12 -7 -11 -10 5 -16 11 -4 28 -14 38 -22 11 -10 17 -11
17 -4 0 7 -4 12 -9 12 -5 0 -11 9 -14 20 -6 22 -14 24 -37 10z"/>
<path d="M4394 736 c-6 -17 2 -36 17 -36 12 0 12 37 -1 45 -6 3 -13 -1 -16 -9z"/>
<path d="M4420 676 c0 -16 28 -42 36 -33 3 3 3 15 -1 26 -7 23 -35 29 -35 7z"/>
<path d="M3917 593 c-4 -3 -7 -17 -7 -30 0 -33 24 -24 28 10 3 26 -7 35 -21
20z"/>
<path d="M2514 565 c-4 -8 -10 -15 -16 -15 -5 0 -25 -16 -45 -35 -20 -19 -40
-35 -45 -35 -4 0 -8 -9 -8 -20 0 -31 12 -25 69 36 l52 55 31 -15 c17 -9 43
-16 58 -16 18 0 31 -7 38 -22 10 -22 11 -21 11 9 1 29 -2 32 -38 38 -22 4 -45
13 -52 21 -15 18 -48 18 -55 -1z"/>
<path d="M4080 475 c0 -16 6 -25 15 -25 9 0 15 9 15 25 0 16 -6 25 -15 25 -9
0 -15 -9 -15 -25z"/>
<path d="M3470 393 c0 -9 7 -12 25 -7 14 3 31 1 39 -5 15 -13 32 1 22 18 -9
15 -86 10 -86 -6z"/>
<path d="M2921 372 c-8 -15 -8 -23 0 -28 17 -10 33 11 21 32 -9 16 -10 16 -21
-4z"/>
<path d="M2640 330 c0 -5 5 -10 10 -10 6 0 10 5 10 10 0 6 -4 10 -10 10 -5 0
-10 -4 -10 -10z"/>
<path d="M3405 317 c-4 -10 -5 -21 -1 -24 10 -10 18 4 13 24 -4 17 -4 17 -12
0z"/>
<path d="M4162 278 c-17 -17 -15 -38 3 -38 8 0 15 4 15 9 0 5 3 16 6 25 7 19
-7 21 -24 4z"/>
<path d="M3540 251 c-14 -28 -12 -61 4 -61 15 0 39 57 30 71 -9 15 -23 10 -34
-10z"/>
<path d="M3074 129 c-7 -12 15 -31 28 -23 4 3 8 12 8 20 0 17 -26 19 -36 3z"/>
<path d="M3362 109 c2 -19 8 -33 13 -31 15 3 12 55 -3 60 -10 3 -13 -5 -10
-29z"/>
<path d="M3647 70 c-21 -49 -22 -70 -2 -70 10 0 15 10 15 33 0 18 5 38 12 45
8 8 9 15 2 22 -6 6 -16 -4 -27 -30z"/>
<path d="M4486 71 c-4 -7 -5 -15 -2 -18 9 -9 19 4 14 18 -4 11 -6 11 -12 0z"/>
</g>
</svg>
